<svg xmlns="http://www.w3.org/2000/svg" xmlns:xlink="http://www.w3.org/1999/xlink" width="500" zoomAndPan="magnify" viewBox="0 0 375 374.999991" height="500" preserveAspectRatio="xMidYMid meet" version="1.0"><defs><g/></defs><rect x="-37.5" width="450" fill="#082957" y="-37.499999" height="449.999989" fill-opacity="1"/><g fill="#ffffff" fill-opacity="1"><g transform="translate(61.945569, 326.356672)"><g><path d="M 14.796875 -23.828125 C 11.921875 -23.828125 9.648438 -22.867188 7.984375 -20.953125 C 6.328125 -19.035156 5.5 -16.410156 5.5 -13.078125 C 5.5 -9.660156 6.300781 -7.015625 7.90625 -5.140625 C 9.507812 -3.273438 11.796875 -2.34375 14.765625 -2.34375 C 16.585938 -2.34375 18.671875 -2.671875 21.015625 -3.328125 L 21.015625 -0.65625 C 19.203125 0.0195312 16.960938 0.359375 14.296875 0.359375 C 10.441406 0.359375 7.46875 -0.804688 5.375 -3.140625 C 3.28125 -5.484375 2.234375 -8.8125 2.234375 -13.125 C 2.234375 -15.820312 2.738281 -18.179688 3.75 -20.203125 C 4.757812 -22.234375 6.210938 -23.796875 8.109375 -24.890625 C 10.015625 -25.992188 12.257812 -26.546875 14.84375 -26.546875 C 17.582031 -26.546875 19.976562 -26.046875 22.03125 -25.046875 L 20.75 -22.421875 C 18.757812 -23.359375 16.773438 -23.828125 14.796875 -23.828125 Z M 14.796875 -23.828125 "/></g></g></g><g fill="#ffffff" fill-opacity="1"><g transform="translate(87.741956, 326.356672)"><g><path d="M 26.3125 -13.125 C 26.3125 -8.9375 25.25 -5.640625 23.125 -3.234375 C 21.007812 -0.835938 18.066406 0.359375 14.296875 0.359375 C 10.441406 0.359375 7.46875 -0.816406 5.375 -3.171875 C 3.28125 -5.535156 2.234375 -8.863281 2.234375 -13.15625 C 2.234375 -17.414062 3.28125 -20.71875 5.375 -23.0625 C 7.476562 -25.40625 10.46875 -26.578125 14.34375 -26.578125 C 18.09375 -26.578125 21.023438 -25.382812 23.140625 -23 C 25.253906 -20.613281 26.3125 -17.320312 26.3125 -13.125 Z M 5.453125 -13.125 C 5.453125 -9.570312 6.207031 -6.878906 7.71875 -5.046875 C 9.226562 -3.222656 11.421875 -2.3125 14.296875 -2.3125 C 17.203125 -2.3125 19.394531 -3.222656 20.875 -5.046875 C 22.351562 -6.867188 23.09375 -9.5625 23.09375 -13.125 C 23.09375 -16.644531 22.351562 -19.3125 20.875 -21.125 C 19.40625 -22.945312 17.226562 -23.859375 14.34375 -23.859375 C 11.4375 -23.859375 9.226562 -22.941406 7.71875 -21.109375 C 6.207031 -19.273438 5.453125 -16.613281 5.453125 -13.125 Z M 5.453125 -13.125 "/></g></g></g><g fill="#ffffff" fill-opacity="1"><g transform="translate(118.960404, 326.356672)"><g><path d="M 24.03125 0 L 20.5625 0 L 6.265625 -21.96875 L 6.125 -21.96875 C 6.3125 -19.382812 6.40625 -17.019531 6.40625 -14.875 L 6.40625 0 L 3.59375 0 L 3.59375 -26.171875 L 7.03125 -26.171875 L 21.296875 -4.296875 L 21.4375 -4.296875 C 21.414062 -4.617188 21.363281 -5.648438 21.28125 -7.390625 C 21.195312 -9.140625 21.164062 -10.394531 21.1875 -11.15625 L 21.1875 -26.171875 L 24.03125 -26.171875 Z M 24.03125 0 "/></g></g></g><g fill="#ffffff" fill-opacity="1"><g transform="translate(149.266219, 326.356672)"><g><path d="M 14.796875 -23.828125 C 11.921875 -23.828125 9.648438 -22.867188 7.984375 -20.953125 C 6.328125 -19.035156 5.5 -16.410156 5.5 -13.078125 C 5.5 -9.660156 6.300781 -7.015625 7.90625 -5.140625 C 9.507812 -3.273438 11.796875 -2.34375 14.765625 -2.34375 C 16.585938 -2.34375 18.671875 -2.671875 21.015625 -3.328125 L 21.015625 -0.65625 C 19.203125 0.0195312 16.960938 0.359375 14.296875 0.359375 C 10.441406 0.359375 7.46875 -0.804688 5.375 -3.140625 C 3.28125 -5.484375 2.234375 -8.8125 2.234375 -13.125 C 2.234375 -15.820312 2.738281 -18.179688 3.75 -20.203125 C 4.757812 -22.234375 6.210938 -23.796875 8.109375 -24.890625 C 10.015625 -25.992188 12.257812 -26.546875 14.84375 -26.546875 C 17.582031 -26.546875 19.976562 -26.046875 22.03125 -25.046875 L 20.75 -22.421875 C 18.757812 -23.359375 16.773438 -23.828125 14.796875 -23.828125 Z M 14.796875 -23.828125 "/></g></g></g><g fill="#ffffff" fill-opacity="1"><g transform="translate(175.062609, 326.356672)"><g><path d="M 18.1875 0 L 3.59375 0 L 3.59375 -26.171875 L 18.1875 -26.171875 L 18.1875 -23.46875 L 6.640625 -23.46875 L 6.640625 -15.03125 L 17.484375 -15.03125 L 17.484375 -12.34375 L 6.640625 -12.34375 L 6.640625 -2.71875 L 18.1875 -2.71875 Z M 18.1875 0 "/></g></g></g><g fill="#ffffff" fill-opacity="1"><g transform="translate(198.12114, 326.356672)"><g><path d="M 24.03125 0 L 20.5625 0 L 6.265625 -21.96875 L 6.125 -21.96875 C 6.3125 -19.382812 6.40625 -17.019531 6.40625 -14.875 L 6.40625 0 L 3.59375 0 L 3.59375 -26.171875 L 7.03125 -26.171875 L 21.296875 -4.296875 L 21.4375 -4.296875 C 21.414062 -4.617188 21.363281 -5.648438 21.28125 -7.390625 C 21.195312 -9.140625 21.164062 -10.394531 21.1875 -11.15625 L 21.1875 -26.171875 L 24.03125 -26.171875 Z M 24.03125 0 "/></g></g></g><g fill="#ffffff" fill-opacity="1"><g transform="translate(228.426951, 326.356672)"><g><path d="M 11.65625 0 L 8.609375 0 L 8.609375 -23.46875 L 0.328125 -23.46875 L 0.328125 -26.171875 L 19.9375 -26.171875 L 19.9375 -23.46875 L 11.65625 -23.46875 Z M 11.65625 0 "/></g></g></g><g fill="#ffffff" fill-opacity="1"><g transform="translate(251.378115, 326.356672)"><g><path d="M 6.640625 -10.875 L 6.640625 0 L 3.59375 0 L 3.59375 -26.171875 L 10.78125 -26.171875 C 13.988281 -26.171875 16.359375 -25.554688 17.890625 -24.328125 C 19.421875 -23.097656 20.1875 -21.25 20.1875 -18.78125 C 20.1875 -15.3125 18.429688 -12.972656 14.921875 -11.765625 L 22.03125 0 L 18.4375 0 L 12.09375 -10.875 Z M 6.640625 -13.5 L 10.8125 -13.5 C 12.957031 -13.5 14.53125 -13.925781 15.53125 -14.78125 C 16.539062 -15.632812 17.046875 -16.910156 17.046875 -18.609375 C 17.046875 -20.335938 16.535156 -21.582031 15.515625 -22.34375 C 14.492188 -23.113281 12.851562 -23.5 10.59375 -23.5 L 6.640625 -23.5 Z M 6.640625 -13.5 "/></g></g></g><g fill="#ffffff" fill-opacity="1"><g transform="translate(276.709247, 326.356672)"><g><path d="M 3.59375 0 L 3.59375 -26.171875 L 6.640625 -26.171875 L 6.640625 0 Z M 3.59375 0 "/></g></g></g><g fill="#ffffff" fill-opacity="1"><g transform="translate(289.603668, 326.356672)"><g><path d="M 14.796875 -23.828125 C 11.921875 -23.828125 9.648438 -22.867188 7.984375 -20.953125 C 6.328125 -19.035156 5.5 -16.410156 5.5 -13.078125 C 5.5 -9.660156 6.300781 -7.015625 7.90625 -5.140625 C 9.507812 -3.273438 11.796875 -2.34375 14.765625 -2.34375 C 16.585938 -2.34375 18.671875 -2.671875 21.015625 -3.328125 L 21.015625 -0.65625 C 19.203125 0.0195312 16.960938 0.359375 14.296875 0.359375 C 10.441406 0.359375 7.46875 -0.804688 5.375 -3.140625 C 3.28125 -5.484375 2.234375 -8.8125 2.234375 -13.125 C 2.234375 -15.820312 2.738281 -18.179688 3.75 -20.203125 C 4.757812 -22.234375 6.210938 -23.796875 8.109375 -24.890625 C 10.015625 -25.992188 12.257812 -26.546875 14.84375 -26.546875 C 17.582031 -26.546875 19.976562 -26.046875 22.03125 -25.046875 L 20.75 -22.421875 C 18.757812 -23.359375 16.773438 -23.828125 14.796875 -23.828125 Z M 14.796875 -23.828125 "/></g></g></g><g fill="#ffffff" fill-opacity="1"><g transform="translate(62.38333, 352.629271)"><g><path d="M 1.890625 0 L 1.890625 -13.796875 L 3.5 -13.796875 L 3.5 -1.453125 L 9.59375 -1.453125 L 9.59375 0 Z M 1.890625 0 "/></g></g></g><g fill="#ffffff" fill-opacity="1"><g transform="translate(87.770012, 352.629271)"><g><path d="M 9.59375 0 L 1.890625 0 L 1.890625 -13.796875 L 9.59375 -13.796875 L 9.59375 -12.375 L 3.5 -12.375 L 3.5 -7.921875 L 9.21875 -7.921875 L 9.21875 -6.515625 L 3.5 -6.515625 L 3.5 -1.4375 L 9.59375 -1.4375 Z M 9.59375 0 "/></g></g></g><g fill="#ffffff" fill-opacity="1"><g transform="translate(113.873836, 352.629271)"><g><path d="M 10.5625 0 L 8.859375 -4.390625 L 3.328125 -4.390625 L 1.625 0 L 0 0 L 5.453125 -13.859375 L 6.796875 -13.859375 L 12.234375 0 Z M 8.359375 -5.828125 L 6.75 -10.109375 C 6.539062 -10.648438 6.328125 -11.3125 6.109375 -12.09375 C 5.972656 -11.488281 5.773438 -10.828125 5.515625 -10.109375 L 3.890625 -5.828125 Z M 8.359375 -5.828125 "/></g></g></g><g fill="#ffffff" fill-opacity="1"><g transform="translate(141.45913, 352.629271)"><g><path d="M 12.90625 -7.03125 C 12.90625 -4.75 12.285156 -3.003906 11.046875 -1.796875 C 9.816406 -0.597656 8.039062 0 5.71875 0 L 1.890625 0 L 1.890625 -13.796875 L 6.125 -13.796875 C 8.269531 -13.796875 9.9375 -13.203125 11.125 -12.015625 C 12.3125 -10.828125 12.90625 -9.164062 12.90625 -7.03125 Z M 11.21875 -6.96875 C 11.21875 -8.769531 10.765625 -10.125 9.859375 -11.03125 C 8.953125 -11.945312 7.609375 -12.40625 5.828125 -12.40625 L 3.5 -12.40625 L 3.5 -1.390625 L 5.453125 -1.390625 C 7.367188 -1.390625 8.804688 -1.859375 9.765625 -2.796875 C 10.734375 -3.734375 11.21875 -5.125 11.21875 -6.96875 Z M 11.21875 -6.96875 "/></g></g></g><g fill="#ffffff" fill-opacity="1"><g transform="translate(170.903324, 352.629271)"><g><path d="M 9.59375 0 L 1.890625 0 L 1.890625 -13.796875 L 9.59375 -13.796875 L 9.59375 -12.375 L 3.5 -12.375 L 3.5 -7.921875 L 9.21875 -7.921875 L 9.21875 -6.515625 L 3.5 -6.515625 L 3.5 -1.4375 L 9.59375 -1.4375 Z M 9.59375 0 "/></g></g></g><g fill="#ffffff" fill-opacity="1"><g transform="translate(197.007144, 352.629271)"><g><path d="M 3.5 -5.734375 L 3.5 0 L 1.890625 0 L 1.890625 -13.796875 L 5.6875 -13.796875 C 7.375 -13.796875 8.617188 -13.472656 9.421875 -12.828125 C 10.234375 -12.179688 10.640625 -11.207031 10.640625 -9.90625 C 10.640625 -8.070312 9.71875 -6.835938 7.875 -6.203125 L 11.625 0 L 9.71875 0 L 6.375 -5.734375 Z M 3.5 -7.109375 L 5.703125 -7.109375 C 6.835938 -7.109375 7.664062 -7.332031 8.1875 -7.78125 C 8.71875 -8.238281 8.984375 -8.914062 8.984375 -9.8125 C 8.984375 -10.726562 8.710938 -11.382812 8.171875 -11.78125 C 7.640625 -12.1875 6.78125 -12.390625 5.59375 -12.390625 L 3.5 -12.390625 Z M 3.5 -7.109375 "/></g></g></g><g fill="#ffffff" fill-opacity="1"><g transform="translate(224.309346, 352.629271)"><g><path d="M 9.6875 -3.671875 C 9.6875 -2.453125 9.242188 -1.503906 8.359375 -0.828125 C 7.484375 -0.148438 6.289062 0.1875 4.78125 0.1875 C 3.144531 0.1875 1.882812 -0.0195312 1 -0.4375 L 1 -1.984375 C 1.5625 -1.742188 2.175781 -1.554688 2.84375 -1.421875 C 3.507812 -1.285156 4.171875 -1.21875 4.828125 -1.21875 C 5.898438 -1.21875 6.707031 -1.421875 7.25 -1.828125 C 7.789062 -2.234375 8.0625 -2.796875 8.0625 -3.515625 C 8.0625 -3.992188 7.960938 -4.382812 7.765625 -4.6875 C 7.578125 -5 7.257812 -5.28125 6.8125 -5.53125 C 6.363281 -5.789062 5.675781 -6.085938 4.75 -6.421875 C 3.46875 -6.878906 2.550781 -7.421875 2 -8.046875 C 1.457031 -8.679688 1.1875 -9.503906 1.1875 -10.515625 C 1.1875 -11.578125 1.582031 -12.421875 2.375 -13.046875 C 3.175781 -13.679688 4.234375 -14 5.546875 -14 C 6.921875 -14 8.179688 -13.742188 9.328125 -13.234375 L 8.828125 -11.84375 C 7.691406 -12.320312 6.585938 -12.5625 5.515625 -12.5625 C 4.660156 -12.5625 3.992188 -12.378906 3.515625 -12.015625 C 3.035156 -11.648438 2.796875 -11.144531 2.796875 -10.5 C 2.796875 -10.019531 2.882812 -9.625 3.0625 -9.3125 C 3.238281 -9.007812 3.535156 -8.726562 3.953125 -8.46875 C 4.378906 -8.21875 5.019531 -7.941406 5.875 -7.640625 C 7.320312 -7.117188 8.316406 -6.5625 8.859375 -5.96875 C 9.410156 -5.382812 9.6875 -4.617188 9.6875 -3.671875 Z M 9.6875 -3.671875 "/></g></g></g><g fill="#ffffff" fill-opacity="1"><g transform="translate(250.271624, 352.629271)"><g><path d="M 12.375 0 L 10.765625 0 L 10.765625 -6.5 L 3.5 -6.5 L 3.5 0 L 1.890625 0 L 1.890625 -13.796875 L 3.5 -13.796875 L 3.5 -7.921875 L 10.765625 -7.921875 L 10.765625 -13.796875 L 12.375 -13.796875 Z M 12.375 0 "/></g></g></g><g fill="#ffffff" fill-opacity="1"><g transform="translate(279.885668, 352.629271)"><g><path d="M 1.890625 0 L 1.890625 -13.796875 L 3.5 -13.796875 L 3.5 0 Z M 1.890625 0 "/></g></g></g><g fill="#ffffff" fill-opacity="1"><g transform="translate(300.62979, 352.629271)"><g><path d="M 10.640625 -9.78125 C 10.640625 -8.382812 10.160156 -7.304688 9.203125 -6.546875 C 8.253906 -5.796875 6.894531 -5.421875 5.125 -5.421875 L 3.5 -5.421875 L 3.5 0 L 1.890625 0 L 1.890625 -13.796875 L 5.46875 -13.796875 C 8.914062 -13.796875 10.640625 -12.457031 10.640625 -9.78125 Z M 3.5 -6.796875 L 4.9375 -6.796875 C 6.363281 -6.796875 7.394531 -7.023438 8.03125 -7.484375 C 8.664062 -7.953125 8.984375 -8.691406 8.984375 -9.703125 C 8.984375 -10.609375 8.679688 -11.285156 8.078125 -11.734375 C 7.484375 -12.179688 6.554688 -12.40625 5.296875 -12.40625 L 3.5 -12.40625 Z M 3.5 -6.796875 "/></g></g></g><path fill="#ffffff" d="M 213.996094 157.410156 L 215.25 156.511719 L 218.652344 153.644531 L 220.984375 151.492188 L 223.492188 149.160156 L 226.179688 146.289062 L 229.046875 143.242188 L 231.730469 139.652344 L 234.242188 136.066406 L 236.570312 132.121094 L 237.644531 129.96875 L 238.539062 127.996094 L 239.4375 125.84375 L 240.152344 123.511719 L 240.691406 121.359375 L 241.226562 119.03125 L 241.585938 116.699219 L 241.585938 112.035156 L 241.40625 109.703125 L 241.226562 108.984375 L 240.871094 108.449219 L 240.511719 108.269531 L 239.796875 108.089844 L 237.464844 107.730469 L 235.136719 107.730469 L 232.808594 107.910156 L 230.65625 108.269531 L 228.328125 108.628906 L 226.179688 109.34375 L 224.027344 110.0625 L 221.878906 110.960938 L 219.90625 111.855469 L 217.9375 112.933594 L 213.996094 115.441406 L 210.414062 117.953125 L 207.007812 120.824219 L 203.964844 123.511719 L 201.277344 126.382812 L 198.949219 128.894531 L 196.796875 131.226562 L 194.109375 134.8125 L 193.035156 136.066406 L 189.808594 135.707031 L 186.945312 135.527344 L 184.4375 135.527344 L 182.285156 135.707031 L 180.496094 136.066406 L 178.882812 136.605469 L 177.449219 137.503906 L 176.195312 138.578125 L 175.121094 140.011719 L 174.042969 141.628906 L 172.96875 143.601562 L 172.074219 145.75 L 167.058594 158.304688 L 166.519531 159.742188 L 166.519531 160.816406 L 166.699219 161.714844 L 167.238281 162.253906 L 167.953125 162.789062 L 168.847656 162.96875 L 169.925781 162.789062 L 171 162.609375 L 180.316406 159.023438 L 191.601562 170.5 L 188.199219 180.1875 L 187.839844 181.261719 L 187.839844 182.339844 L 188.019531 183.234375 L 188.378906 183.953125 L 188.914062 184.492188 L 189.808594 184.667969 L 190.886719 184.667969 L 192.320312 184.3125 L 204.5 179.109375 L 206.652344 178.035156 L 208.621094 176.957031 L 210.234375 175.882812 L 211.488281 174.804688 L 212.5625 173.550781 L 213.457031 172.117188 L 213.996094 170.5 L 214.355469 168.527344 L 214.535156 166.378906 L 214.535156 163.867188 L 214.355469 160.816406 Z M 218.296875 131.582031 L 217.578125 130.507812 L 216.863281 129.253906 L 216.503906 127.996094 L 216.503906 125.484375 L 216.863281 124.230469 L 217.578125 122.976562 L 218.296875 121.898438 L 219.371094 121.003906 L 220.625 120.464844 L 221.878906 120.105469 L 223.132812 119.925781 L 224.386719 120.105469 L 225.640625 120.464844 L 226.714844 121.003906 L 227.792969 121.898438 L 228.6875 122.976562 L 229.402344 124.230469 L 229.761719 125.484375 L 229.761719 127.996094 L 229.402344 129.253906 L 228.6875 130.507812 L 227.792969 131.582031 L 226.714844 132.480469 L 225.640625 133.019531 L 224.386719 133.554688 L 221.878906 133.554688 L 220.625 133.019531 L 219.371094 132.480469 Z M 218.296875 131.582031 " fill-opacity="1" fill-rule="evenodd"/><path fill="#ffffff" d="M 185.117188 174.144531 L 179.574219 179.730469 L 167.203125 183.3125 L 170.6875 170.914062 L 176.230469 165.328125 Z M 185.117188 174.144531 " fill-opacity="1" fill-rule="evenodd"/><path fill="#ffffff" d="M 200.226562 17.976562 C 234.011719 18.335938 267.242188 31.375 292.605469 55.902344 L 292.53125 55.976562 L 295.207031 59.941406 C 295.878906 61.527344 296.25 63.273438 296.25 65.105469 C 296.25 72.4375 290.308594 78.378906 282.976562 78.378906 C 281.144531 78.378906 279.398438 78.003906 277.8125 77.335938 L 274.214844 74.910156 L 274.085938 75.039062 C 241.519531 43.542969 192.78125 35.65625 151.941406 55.273438 C 111.097656 74.890625 86.800781 117.863281 91.046875 162.964844 C 95.292969 208.066406 127.183594 245.753906 170.96875 257.410156 C 214.75 269.066406 261.164062 252.226562 287.28125 215.207031 L 287.292969 215.214844 L 288.890625 213.273438 C 291.300781 210.863281 294.625 209.371094 298.300781 209.371094 C 305.652344 209.371094 311.609375 215.335938 311.609375 222.695312 C 311.609375 223.15625 311.585938 223.609375 311.539062 224.058594 L 311.527344 224.15625 L 311.523438 224.171875 C 311.386719 225.511719 311.054688 226.789062 310.550781 227.980469 L 310.339844 228.292969 L 309.335938 230.144531 L 309.015625 230.53125 L 309.042969 230.554688 L 307.8125 232.042969 L 307.707031 232.199219 L 307.652344 232.234375 L 295.710938 246.652344 C 262.097656 281.371094 211.851562 295.847656 164.113281 283.136719 C 109.558594 268.613281 69.820312 221.65625 64.53125 165.460938 C 59.242188 109.265625 89.519531 55.71875 140.40625 31.273438 C 159.488281 22.109375 179.957031 17.761719 200.226562 17.976562 Z M 200.226562 17.976562 " fill-opacity="1" fill-rule="evenodd"/><path fill="#ffffff" d="M 129.15625 105.714844 C 136.492188 105.714844 142.441406 111.660156 142.441406 118.992188 C 142.441406 120.828125 142.070312 122.574219 141.398438 124.164062 L 140.65625 125.261719 L 140.84375 125.351562 C 126.496094 155.332031 137.871094 191.296875 166.851562 207.582031 C 194.023438 222.851562 227.9375 215.914062 247.039062 192.054688 L 250.59375 187.144531 L 250.65625 187.027344 L 251.425781 186.089844 L 251.527344 185.941406 L 251.597656 185.882812 L 252.273438 185.0625 C 254.667969 182.664062 257.976562 181.179688 261.632812 181.179688 C 268.941406 181.179688 274.867188 187.117188 274.867188 194.441406 C 274.867188 196.269531 274.5 198.015625 273.828125 199.601562 L 272.800781 201.5 L 272.832031 201.519531 L 272.628906 201.816406 L 272.609375 201.855469 L 272.578125 201.894531 L 270.339844 205.144531 C 243.804688 241.792969 193.730469 253.050781 153.875 230.65625 C 115.308594 208.980469 98.703125 162.757812 113.5625 121.996094 L 116.835938 114.21875 L 116.914062 113.824219 C 118.929688 109.058594 123.652344 105.714844 129.15625 105.714844 Z M 129.15625 105.714844 " fill-opacity="1" fill-rule="evenodd"/></svg>