<svg xmlns="http://www.w3.org/2000/svg" xmlns:xlink="http://www.w3.org/1999/xlink" width="5669" zoomAndPan="magnify" viewBox="0 0 4251.75 1417.499962" height="1889" preserveAspectRatio="xMidYMid meet" version="1.0"><defs><g/></defs><g fill="#333333" fill-opacity="1"><g transform="translate(989.72567, 710.370821)"><g><path d="M 201.828125 -324.828125 C 162.617188 -324.828125 131.664062 -311.769531 108.96875 -285.65625 C 86.269531 -259.539062 74.921875 -223.789062 74.921875 -178.40625 C 74.921875 -131.707031 85.863281 -95.625 107.75 -70.15625 C 129.632812 -44.695312 160.832031 -31.96875 201.34375 -31.96875 C 226.238281 -31.96875 254.628906 -36.441406 286.515625 -45.390625 L 286.515625 -9.03125 C 261.785156 0.238281 231.28125 4.875 195 4.875 C 142.445312 4.875 101.890625 -11.066406 73.328125 -42.953125 C 44.773438 -74.835938 30.5 -120.148438 30.5 -178.890625 C 30.5 -215.660156 37.375 -247.875 51.125 -275.53125 C 64.875 -303.1875 84.722656 -324.5 110.671875 -339.46875 C 136.628906 -354.4375 167.175781 -361.921875 202.3125 -361.921875 C 239.738281 -361.921875 272.441406 -355.085938 300.421875 -341.421875 L 282.859375 -305.796875 C 255.847656 -318.484375 228.835938 -324.828125 201.828125 -324.828125 Z M 201.828125 -324.828125 "/></g></g><g transform="translate(1305.040947, 710.370821)"><g><path d="M 358.75 -178.890625 C 358.75 -121.785156 344.304688 -76.878906 315.421875 -44.171875 C 286.546875 -11.472656 246.40625 4.875 195 4.875 C 142.445312 4.875 101.890625 -11.1875 73.328125 -43.3125 C 44.773438 -75.445312 30.5 -120.800781 30.5 -179.375 C 30.5 -237.457031 44.816406 -282.484375 73.453125 -314.453125 C 102.085938 -346.421875 142.765625 -362.40625 195.484375 -362.40625 C 246.734375 -362.40625 286.753906 -346.132812 315.546875 -313.59375 C 344.347656 -281.0625 358.75 -236.160156 358.75 -178.890625 Z M 74.4375 -178.890625 C 74.4375 -130.566406 84.722656 -93.914062 105.296875 -68.9375 C 125.878906 -43.96875 155.78125 -31.484375 195 -31.484375 C 234.53125 -31.484375 264.382812 -43.925781 284.5625 -68.8125 C 304.738281 -93.707031 314.828125 -130.398438 314.828125 -178.890625 C 314.828125 -226.878906 304.78125 -263.28125 284.6875 -288.09375 C 264.59375 -312.90625 234.859375 -325.3125 195.484375 -325.3125 C 155.941406 -325.3125 125.878906 -312.820312 105.296875 -287.84375 C 84.722656 -262.875 74.4375 -226.554688 74.4375 -178.890625 Z M 74.4375 -178.890625 "/></g></g><g transform="translate(1694.303998, 710.370821)"><g><path d="M 327.765625 0 L 280.40625 0 L 85.421875 -299.453125 L 83.46875 -299.453125 C 86.070312 -264.304688 87.375 -232.09375 87.375 -202.8125 L 87.375 0 L 49.046875 0 L 49.046875 -356.796875 L 95.90625 -356.796875 L 290.421875 -58.578125 L 292.375 -58.578125 C 292.039062 -62.960938 291.304688 -77.070312 290.171875 -100.90625 C 289.035156 -124.75 288.628906 -141.796875 288.953125 -152.046875 L 288.953125 -356.796875 L 327.765625 -356.796875 Z M 327.765625 0 "/></g></g><g transform="translate(2071.120395, 710.370821)"><g><path d="M 201.828125 -324.828125 C 162.617188 -324.828125 131.664062 -311.769531 108.96875 -285.65625 C 86.269531 -259.539062 74.921875 -223.789062 74.921875 -178.40625 C 74.921875 -131.707031 85.863281 -95.625 107.75 -70.15625 C 129.632812 -44.695312 160.832031 -31.96875 201.34375 -31.96875 C 226.238281 -31.96875 254.628906 -36.441406 286.515625 -45.390625 L 286.515625 -9.03125 C 261.785156 0.238281 231.28125 4.875 195 4.875 C 142.445312 4.875 101.890625 -11.066406 73.328125 -42.953125 C 44.773438 -74.835938 30.5 -120.148438 30.5 -178.890625 C 30.5 -215.660156 37.375 -247.875 51.125 -275.53125 C 64.875 -303.1875 84.722656 -324.5 110.671875 -339.46875 C 136.628906 -354.4375 167.175781 -361.921875 202.3125 -361.921875 C 239.738281 -361.921875 272.441406 -355.085938 300.421875 -341.421875 L 282.859375 -305.796875 C 255.847656 -318.484375 228.835938 -324.828125 201.828125 -324.828125 Z M 201.828125 -324.828125 "/></g></g><g transform="translate(2386.435673, 710.370821)"><g><path d="M 247.953125 0 L 49.046875 0 L 49.046875 -356.796875 L 247.953125 -356.796875 L 247.953125 -319.953125 L 90.546875 -319.953125 L 90.546875 -205 L 238.4375 -205 L 238.4375 -168.390625 L 90.546875 -168.390625 L 90.546875 -37.09375 L 247.953125 -37.09375 Z M 247.953125 0 "/></g></g><g transform="translate(2664.410979, 710.370821)"><g><path d="M 327.765625 0 L 280.40625 0 L 85.421875 -299.453125 L 83.46875 -299.453125 C 86.070312 -264.304688 87.375 -232.09375 87.375 -202.8125 L 87.375 0 L 49.046875 0 L 49.046875 -356.796875 L 95.90625 -356.796875 L 290.421875 -58.578125 L 292.375 -58.578125 C 292.039062 -62.960938 291.304688 -77.070312 290.171875 -100.90625 C 289.035156 -124.75 288.628906 -141.796875 288.953125 -152.046875 L 288.953125 -356.796875 L 327.765625 -356.796875 Z M 327.765625 0 "/></g></g><g transform="translate(3041.227376, 710.370821)"><g><path d="M 158.875 0 L 117.390625 0 L 117.390625 -319.953125 L 4.390625 -319.953125 L 4.390625 -356.796875 L 271.875 -356.796875 L 271.875 -319.953125 L 158.875 -319.953125 Z M 158.875 0 "/></g></g><g transform="translate(3317.738374, 710.370821)"><g><path d="M 90.546875 -148.375 L 90.546875 0 L 49.046875 0 L 49.046875 -356.796875 L 146.921875 -356.796875 C 190.679688 -356.796875 223.015625 -348.414062 243.921875 -331.65625 C 264.828125 -314.90625 275.28125 -289.6875 275.28125 -256 C 275.28125 -208.820312 251.363281 -176.9375 203.53125 -160.34375 L 300.421875 0 L 251.375 0 L 164.984375 -148.375 Z M 90.546875 -184.015625 L 147.40625 -184.015625 C 176.6875 -184.015625 198.160156 -189.828125 211.828125 -201.453125 C 225.492188 -213.085938 232.328125 -230.539062 232.328125 -253.8125 C 232.328125 -277.40625 225.375 -294.40625 211.46875 -304.8125 C 197.5625 -315.226562 175.234375 -320.4375 144.484375 -320.4375 L 90.546875 -320.4375 Z M 90.546875 -184.015625 "/></g></g><g transform="translate(3626.708294, 710.370821)"><g><path d="M 49.046875 0 L 49.046875 -356.796875 L 90.546875 -356.796875 L 90.546875 0 Z M 49.046875 0 "/></g></g><g transform="translate(3766.062025, 710.370821)"><g><path d="M 201.828125 -324.828125 C 162.617188 -324.828125 131.664062 -311.769531 108.96875 -285.65625 C 86.269531 -259.539062 74.921875 -223.789062 74.921875 -178.40625 C 74.921875 -131.707031 85.863281 -95.625 107.75 -70.15625 C 129.632812 -44.695312 160.832031 -31.96875 201.34375 -31.96875 C 226.238281 -31.96875 254.628906 -36.441406 286.515625 -45.390625 L 286.515625 -9.03125 C 261.785156 0.238281 231.28125 4.875 195 4.875 C 142.445312 4.875 101.890625 -11.066406 73.328125 -42.953125 C 44.773438 -74.835938 30.5 -120.148438 30.5 -178.890625 C 30.5 -215.660156 37.375 -247.875 51.125 -275.53125 C 64.875 -303.1875 84.722656 -324.5 110.671875 -339.46875 C 136.628906 -354.4375 167.175781 -361.921875 202.3125 -361.921875 C 239.738281 -361.921875 272.441406 -355.085938 300.421875 -341.421875 L 282.859375 -305.796875 C 255.847656 -318.484375 228.835938 -324.828125 201.828125 -324.828125 Z M 201.828125 -324.828125 "/></g></g></g><g fill="#333333" fill-opacity="1"><g transform="translate(1009.588678, 1106.591731)"><g><path d="M 28.46875 0 L 28.46875 -226.1875 L 76.421875 -226.1875 L 76.421875 -39.609375 L 168.171875 -39.609375 L 168.171875 0 Z M 28.46875 0 "/></g></g></g><g fill="#333333" fill-opacity="1"><g transform="translate(1315.319007, 1106.591731)"><g><path d="M 158.734375 0 L 28.46875 0 L 28.46875 -226.1875 L 158.734375 -226.1875 L 158.734375 -186.890625 L 76.421875 -186.890625 L 76.421875 -137.234375 L 153 -137.234375 L 153 -97.9375 L 76.421875 -97.9375 L 76.421875 -39.609375 L 158.734375 -39.609375 Z M 158.734375 0 "/></g></g></g><g fill="#333333" fill-opacity="1"><g transform="translate(1619.502296, 1106.591731)"><g><path d="M 166.9375 0 L 150.53125 -53.84375 L 68.078125 -53.84375 L 51.671875 0 L 0 0 L 79.828125 -227.109375 L 138.46875 -227.109375 L 218.609375 0 Z M 139.078125 -94.0625 C 123.921875 -142.84375 115.382812 -170.429688 113.46875 -176.828125 C 111.5625 -183.222656 110.195312 -188.28125 109.375 -192 C 105.976562 -178.789062 96.234375 -146.144531 80.140625 -94.0625 Z M 139.078125 -94.0625 "/></g></g></g><g fill="#333333" fill-opacity="1"><g transform="translate(1964.83733, 1106.591731)"><g><path d="M 216.125 -115.265625 C 216.125 -78.023438 205.523438 -49.503906 184.328125 -29.703125 C 163.140625 -9.898438 132.535156 0 92.515625 0 L 28.46875 0 L 28.46875 -226.1875 L 99.484375 -226.1875 C 136.398438 -226.1875 165.066406 -216.4375 185.484375 -196.9375 C 205.910156 -177.445312 216.125 -150.222656 216.125 -115.265625 Z M 166.3125 -114.015625 C 166.3125 -162.597656 144.859375 -186.890625 101.953125 -186.890625 L 76.421875 -186.890625 L 76.421875 -39.609375 L 97 -39.609375 C 143.207031 -39.609375 166.3125 -64.410156 166.3125 -114.015625 Z M 166.3125 -114.015625 "/></g></g></g><g fill="#333333" fill-opacity="1"><g transform="translate(2326.107087, 1106.591731)"><g><path d="M 158.734375 0 L 28.46875 0 L 28.46875 -226.1875 L 158.734375 -226.1875 L 158.734375 -186.890625 L 76.421875 -186.890625 L 76.421875 -137.234375 L 153 -137.234375 L 153 -97.9375 L 76.421875 -97.9375 L 76.421875 -39.609375 L 158.734375 -39.609375 Z M 158.734375 0 "/></g></g></g><g fill="#333333" fill-opacity="1"><g transform="translate(2630.29042, 1106.591731)"><g><path d="M 76.421875 -125.78125 L 91.890625 -125.78125 C 107.054688 -125.78125 118.25 -128.304688 125.46875 -133.359375 C 132.6875 -138.410156 136.296875 -146.351562 136.296875 -157.1875 C 136.296875 -167.914062 132.609375 -175.546875 125.234375 -180.078125 C 117.859375 -184.617188 106.4375 -186.890625 90.96875 -186.890625 L 76.421875 -186.890625 Z M 76.421875 -86.796875 L 76.421875 0 L 28.46875 0 L 28.46875 -226.1875 L 94.375 -226.1875 C 125.101562 -226.1875 147.84375 -220.585938 162.59375 -209.390625 C 177.34375 -198.203125 184.71875 -181.210938 184.71875 -158.421875 C 184.71875 -145.117188 181.054688 -133.285156 173.734375 -122.921875 C 166.410156 -112.554688 156.046875 -104.429688 142.640625 -98.546875 C 176.679688 -47.703125 198.859375 -14.851562 209.171875 0 L 155.953125 0 L 101.953125 -86.796875 Z M 76.421875 -86.796875 "/></g></g></g><g fill="#333333" fill-opacity="1"><g transform="translate(2966.18844, 1106.591731)"><g><path d="M 161.984375 -62.8125 C 161.984375 -42.382812 154.632812 -26.289062 139.9375 -14.53125 C 125.238281 -2.78125 104.789062 3.09375 78.59375 3.09375 C 54.457031 3.09375 33.109375 -1.441406 14.546875 -10.515625 L 14.546875 -55.078125 C 29.804688 -48.265625 42.722656 -43.46875 53.296875 -40.6875 C 63.867188 -37.90625 73.539062 -36.515625 82.3125 -36.515625 C 92.820312 -36.515625 100.890625 -38.523438 106.515625 -42.546875 C 112.140625 -46.566406 114.953125 -52.546875 114.953125 -60.484375 C 114.953125 -64.921875 113.710938 -68.867188 111.234375 -72.328125 C 108.753906 -75.785156 105.117188 -79.109375 100.328125 -82.296875 C 95.535156 -85.492188 85.765625 -90.601562 71.015625 -97.625 C 57.191406 -104.125 46.820312 -110.363281 39.90625 -116.34375 C 33 -122.320312 27.484375 -129.28125 23.359375 -137.21875 C 19.234375 -145.164062 17.171875 -154.453125 17.171875 -165.078125 C 17.171875 -185.085938 23.953125 -200.816406 37.515625 -212.265625 C 51.078125 -223.710938 69.820312 -229.4375 93.75 -229.4375 C 105.507812 -229.4375 116.726562 -228.039062 127.40625 -225.25 C 138.082031 -222.46875 149.242188 -218.550781 160.890625 -213.5 L 145.421875 -176.21875 C 133.359375 -181.164062 123.378906 -184.617188 115.484375 -186.578125 C 107.597656 -188.535156 99.835938 -189.515625 92.203125 -189.515625 C 83.128906 -189.515625 76.164062 -187.398438 71.3125 -183.171875 C 66.46875 -178.941406 64.046875 -173.425781 64.046875 -166.625 C 64.046875 -162.394531 65.023438 -158.707031 66.984375 -155.5625 C 68.941406 -152.414062 72.0625 -149.367188 76.34375 -146.421875 C 80.625 -143.484375 90.757812 -138.203125 106.75 -130.578125 C 127.894531 -120.460938 142.382812 -110.328125 150.21875 -100.171875 C 158.0625 -90.015625 161.984375 -77.5625 161.984375 -62.8125 Z M 161.984375 -62.8125 "/></g></g></g><g fill="#333333" fill-opacity="1"><g transform="translate(3267.432278, 1106.591731)"><g><path d="M 213.8125 0 L 166 0 L 166 -97.625 L 76.421875 -97.625 L 76.421875 0 L 28.46875 0 L 28.46875 -226.1875 L 76.421875 -226.1875 L 76.421875 -137.53125 L 166 -137.53125 L 166 -226.1875 L 213.8125 -226.1875 Z M 213.8125 0 "/></g></g></g><g fill="#333333" fill-opacity="1"><g transform="translate(3636.592107, 1106.591731)"><g><path d="M 28.46875 0 L 28.46875 -226.1875 L 76.421875 -226.1875 L 76.421875 0 Z M 28.46875 0 "/></g></g></g><g fill="#333333" fill-opacity="1"><g transform="translate(3868.218237, 1106.591731)"><g><path d="M 76.421875 -119.75 L 92.203125 -119.75 C 106.953125 -119.75 117.988281 -122.660156 125.3125 -128.484375 C 132.632812 -134.316406 136.296875 -142.800781 136.296875 -153.9375 C 136.296875 -165.175781 133.226562 -173.476562 127.09375 -178.84375 C 120.957031 -184.207031 111.335938 -186.890625 98.234375 -186.890625 L 76.421875 -186.890625 Z M 184.71875 -155.640625 C 184.71875 -131.296875 177.109375 -112.675781 161.890625 -99.78125 C 146.679688 -86.894531 125.050781 -80.453125 97 -80.453125 L 76.421875 -80.453125 L 76.421875 0 L 28.46875 0 L 28.46875 -226.1875 L 100.71875 -226.1875 C 128.15625 -226.1875 149.015625 -220.28125 163.296875 -208.46875 C 177.578125 -196.65625 184.71875 -179.046875 184.71875 -155.640625 Z M 184.71875 -155.640625 "/></g></g></g><path fill="#0097b2" d="M 486.136719 740.691406 L 489.65625 738.171875 L 499.21875 730.113281 L 505.753906 724.070312 L 512.800781 717.523438 L 520.347656 709.464844 L 528.398438 700.902344 L 535.945312 690.828125 L 542.988281 680.753906 L 549.527344 669.675781 L 552.546875 663.632812 L 555.0625 658.089844 L 557.578125 652.046875 L 559.589844 645.5 L 561.097656 639.457031 L 562.609375 632.910156 L 563.617188 626.359375 L 563.617188 613.265625 L 563.113281 606.71875 L 562.609375 604.703125 L 561.605469 603.191406 L 560.597656 602.6875 L 558.585938 602.1875 L 552.042969 601.179688 L 545.503906 601.179688 L 538.960938 601.683594 L 532.925781 602.6875 L 526.386719 603.695312 L 514.308594 607.726562 L 508.273438 610.246094 L 502.738281 612.761719 L 497.207031 615.785156 L 486.136719 622.835938 L 476.074219 629.886719 L 466.515625 637.945312 L 457.960938 645.5 L 450.414062 653.558594 L 443.875 660.609375 L 437.835938 667.15625 L 430.289062 677.230469 L 427.269531 680.753906 L 418.214844 679.75 L 410.164062 679.246094 L 403.121094 679.246094 L 397.082031 679.75 L 392.054688 680.753906 L 387.523438 682.265625 L 383.5 684.785156 L 379.976562 687.804688 L 376.960938 691.835938 L 373.941406 696.367188 L 370.921875 701.910156 L 368.40625 707.953125 L 354.320312 743.207031 L 352.808594 747.238281 L 352.808594 750.261719 L 353.3125 752.777344 L 354.824219 754.289062 L 356.835938 755.800781 L 359.351562 756.300781 L 362.367188 755.800781 L 365.386719 755.296875 L 391.550781 745.222656 L 423.246094 777.453125 L 413.6875 804.652344 L 412.679688 807.675781 L 412.679688 810.699219 L 413.183594 813.214844 L 414.191406 815.230469 L 415.699219 816.742188 L 418.214844 817.246094 L 421.234375 817.246094 L 425.257812 816.238281 L 459.472656 801.628906 L 465.507812 798.609375 L 471.042969 795.589844 L 475.570312 792.566406 L 479.089844 789.542969 L 482.109375 786.019531 L 484.625 781.992188 L 486.136719 777.453125 L 487.144531 771.914062 L 487.644531 765.875 L 487.644531 758.820312 L 487.144531 750.261719 Z M 498.210938 668.164062 L 496.199219 665.140625 L 494.1875 661.617188 L 493.179688 658.089844 L 493.179688 651.039062 L 494.1875 647.515625 L 496.199219 643.988281 L 498.210938 640.96875 L 501.226562 638.449219 L 504.753906 636.9375 L 508.273438 635.929688 L 511.796875 635.425781 L 515.316406 635.929688 L 518.835938 636.9375 L 521.855469 638.449219 L 524.878906 640.96875 L 527.390625 643.988281 L 529.40625 647.515625 L 530.410156 651.039062 L 530.410156 658.089844 L 529.40625 661.617188 L 527.390625 665.140625 L 524.878906 668.164062 L 521.855469 670.683594 L 518.835938 672.191406 L 515.316406 673.703125 L 508.273438 673.703125 L 504.753906 672.191406 L 501.226562 670.683594 Z M 498.210938 668.164062 " fill-opacity="1" fill-rule="evenodd"/><path fill="#0097b2" d="M 405.039062 787.683594 L 389.472656 803.375 L 354.734375 813.433594 L 364.515625 778.617188 L 380.082031 762.925781 Z M 405.039062 787.683594 " fill-opacity="1" fill-rule="evenodd"/><path fill="#0097b2" d="M 447.46875 349.121094 C 542.339844 350.132812 635.671875 386.746094 706.890625 455.628906 L 706.691406 455.835938 L 714.199219 466.972656 C 716.085938 471.429688 717.128906 476.332031 717.128906 481.476562 C 717.128906 502.058594 700.441406 518.742188 679.855469 518.742188 C 674.707031 518.742188 669.804688 517.703125 665.34375 515.816406 L 655.242188 509.003906 L 654.890625 509.371094 C 563.433594 420.917969 426.558594 398.769531 311.863281 453.863281 C 197.171875 508.957031 128.933594 629.636719 140.855469 756.292969 C 152.777344 882.949219 242.335938 988.789062 365.296875 1021.519531 C 488.257812 1054.253906 618.601562 1006.960938 691.941406 903.003906 L 691.96875 903.023438 L 696.464844 897.574219 C 703.226562 890.804688 712.570312 886.617188 722.890625 886.617188 C 743.53125 886.617188 760.261719 903.367188 760.261719 924.027344 C 760.261719 925.324219 760.195312 926.597656 760.066406 927.855469 L 760.027344 928.132812 L 760.023438 928.179688 C 759.640625 931.9375 758.703125 935.53125 757.289062 938.878906 L 756.695312 939.75 L 753.878906 944.945312 L 752.972656 946.042969 L 753.058594 946.101562 L 749.59375 950.285156 L 749.300781 950.722656 L 749.144531 950.824219 L 715.617188 991.3125 C 621.214844 1088.808594 480.109375 1129.460938 346.054688 1093.773438 C 192.84375 1052.988281 81.25 921.117188 66.394531 763.300781 C 51.539062 605.484375 136.566406 455.113281 279.476562 386.464844 C 333.066406 360.722656 390.542969 348.515625 447.46875 349.121094 Z M 447.46875 349.121094 " fill-opacity="1" fill-rule="evenodd"/><path fill="#0097b2" d="M 247.878906 595.515625 C 268.484375 595.515625 285.1875 612.210938 285.1875 632.808594 C 285.1875 637.957031 284.144531 642.863281 282.257812 647.324219 L 280.175781 650.40625 L 280.703125 650.660156 C 240.40625 734.851562 272.351562 835.851562 353.742188 881.589844 C 430.050781 924.46875 525.285156 904.992188 578.929688 837.980469 L 588.910156 824.191406 L 589.085938 823.863281 L 591.25 821.234375 L 591.535156 820.816406 L 591.730469 820.65625 L 593.625 818.347656 C 600.355469 811.613281 609.644531 807.445312 619.910156 807.445312 C 640.441406 807.445312 657.082031 824.117188 657.082031 844.683594 C 657.082031 849.824219 656.042969 854.726562 654.160156 859.179688 L 651.277344 864.503906 L 651.367188 864.566406 L 650.792969 865.402344 L 650.734375 865.503906 L 650.644531 865.613281 L 644.367188 874.746094 C 569.847656 977.660156 429.226562 1009.28125 317.300781 946.386719 C 208.988281 885.519531 162.363281 755.707031 204.089844 641.242188 L 213.277344 619.398438 L 213.5 618.289062 C 219.164062 604.90625 232.425781 595.515625 247.878906 595.515625 Z M 247.878906 595.515625 " fill-opacity="1" fill-rule="evenodd"/></svg>