<svg xmlns="http://www.w3.org/2000/svg" xmlns:xlink="http://www.w3.org/1999/xlink" width="500" zoomAndPan="magnify" viewBox="0 0 375 374.999991" height="500" preserveAspectRatio="xMidYMid meet" version="1.0"><defs><g/></defs><g fill="#333333" fill-opacity="1"><g transform="translate(45.64469, 340.853453)"><g><path d="M 16.296875 -26.21875 C 13.128906 -26.21875 10.628906 -25.160156 8.796875 -23.046875 C 6.960938 -20.941406 6.046875 -18.0625 6.046875 -14.40625 C 6.046875 -10.632812 6.925781 -7.71875 8.6875 -5.65625 C 10.457031 -3.601562 12.976562 -2.578125 16.25 -2.578125 C 18.257812 -2.578125 20.550781 -2.9375 23.125 -3.65625 L 23.125 -0.734375 C 21.125 0.015625 18.660156 0.390625 15.734375 0.390625 C 11.492188 0.390625 8.222656 -0.894531 5.921875 -3.46875 C 3.617188 -6.039062 2.46875 -9.695312 2.46875 -14.4375 C 2.46875 -17.40625 3.019531 -20.003906 4.125 -22.234375 C 5.238281 -24.472656 6.84375 -26.195312 8.9375 -27.40625 C 11.03125 -28.613281 13.492188 -29.21875 16.328125 -29.21875 C 19.347656 -29.21875 21.988281 -28.664062 24.25 -27.5625 L 22.828125 -24.6875 C 20.648438 -25.707031 18.472656 -26.21875 16.296875 -26.21875 Z M 16.296875 -26.21875 "/></g></g></g><g fill="#333333" fill-opacity="1"><g transform="translate(74.037419, 340.853453)"><g><path d="M 28.953125 -14.4375 C 28.953125 -9.832031 27.785156 -6.207031 25.453125 -3.5625 C 23.128906 -0.925781 19.890625 0.390625 15.734375 0.390625 C 11.492188 0.390625 8.222656 -0.90625 5.921875 -3.5 C 3.617188 -6.09375 2.46875 -9.753906 2.46875 -14.484375 C 2.46875 -19.171875 3.617188 -22.800781 5.921875 -25.375 C 8.234375 -27.957031 11.519531 -29.25 15.78125 -29.25 C 19.914062 -29.25 23.144531 -27.9375 25.46875 -25.3125 C 27.789062 -22.6875 28.953125 -19.0625 28.953125 -14.4375 Z M 6.015625 -14.4375 C 6.015625 -10.539062 6.84375 -7.582031 8.5 -5.5625 C 10.15625 -3.550781 12.566406 -2.546875 15.734375 -2.546875 C 18.929688 -2.546875 21.34375 -3.546875 22.96875 -5.546875 C 24.59375 -7.554688 25.40625 -10.519531 25.40625 -14.4375 C 25.40625 -18.3125 24.59375 -21.25 22.96875 -23.25 C 21.351562 -25.257812 18.957031 -26.265625 15.78125 -26.265625 C 12.582031 -26.265625 10.15625 -25.253906 8.5 -23.234375 C 6.84375 -21.222656 6.015625 -18.289062 6.015625 -14.4375 Z M 6.015625 -14.4375 "/></g></g></g><g fill="#333333" fill-opacity="1"><g transform="translate(108.397925, 340.853453)"><g><path d="M 26.453125 0 L 22.640625 0 L 6.890625 -24.171875 L 6.734375 -24.171875 C 6.941406 -21.335938 7.046875 -18.738281 7.046875 -16.375 L 7.046875 0 L 3.953125 0 L 3.953125 -28.796875 L 7.734375 -28.796875 L 23.4375 -4.734375 L 23.59375 -4.734375 C 23.570312 -5.085938 23.515625 -6.222656 23.421875 -8.140625 C 23.328125 -10.066406 23.296875 -11.441406 23.328125 -12.265625 L 23.328125 -28.796875 L 26.453125 -28.796875 Z M 26.453125 0 "/></g></g></g><g fill="#333333" fill-opacity="1"><g transform="translate(141.753943, 340.853453)"><g><path d="M 16.296875 -26.21875 C 13.128906 -26.21875 10.628906 -25.160156 8.796875 -23.046875 C 6.960938 -20.941406 6.046875 -18.0625 6.046875 -14.40625 C 6.046875 -10.632812 6.925781 -7.71875 8.6875 -5.65625 C 10.457031 -3.601562 12.976562 -2.578125 16.25 -2.578125 C 18.257812 -2.578125 20.550781 -2.9375 23.125 -3.65625 L 23.125 -0.734375 C 21.125 0.015625 18.660156 0.390625 15.734375 0.390625 C 11.492188 0.390625 8.222656 -0.894531 5.921875 -3.46875 C 3.617188 -6.039062 2.46875 -9.695312 2.46875 -14.4375 C 2.46875 -17.40625 3.019531 -20.003906 4.125 -22.234375 C 5.238281 -24.472656 6.84375 -26.195312 8.9375 -27.40625 C 11.03125 -28.613281 13.492188 -29.21875 16.328125 -29.21875 C 19.347656 -29.21875 21.988281 -28.664062 24.25 -27.5625 L 22.828125 -24.6875 C 20.648438 -25.707031 18.472656 -26.21875 16.296875 -26.21875 Z M 16.296875 -26.21875 "/></g></g></g><g fill="#333333" fill-opacity="1"><g transform="translate(170.146675, 340.853453)"><g><path d="M 20.015625 0 L 3.953125 0 L 3.953125 -28.796875 L 20.015625 -28.796875 L 20.015625 -25.828125 L 7.3125 -25.828125 L 7.3125 -16.546875 L 19.25 -16.546875 L 19.25 -13.59375 L 7.3125 -13.59375 L 7.3125 -3 L 20.015625 -3 Z M 20.015625 0 "/></g></g></g><g fill="#333333" fill-opacity="1"><g transform="translate(195.525989, 340.853453)"><g><path d="M 26.453125 0 L 22.640625 0 L 6.890625 -24.171875 L 6.734375 -24.171875 C 6.941406 -21.335938 7.046875 -18.738281 7.046875 -16.375 L 7.046875 0 L 3.953125 0 L 3.953125 -28.796875 L 7.734375 -28.796875 L 23.4375 -4.734375 L 23.59375 -4.734375 C 23.570312 -5.085938 23.515625 -6.222656 23.421875 -8.140625 C 23.328125 -10.066406 23.296875 -11.441406 23.328125 -12.265625 L 23.328125 -28.796875 L 26.453125 -28.796875 Z M 26.453125 0 "/></g></g></g><g fill="#333333" fill-opacity="1"><g transform="translate(228.882002, 340.853453)"><g><path d="M 12.828125 0 L 9.46875 0 L 9.46875 -25.828125 L 0.359375 -25.828125 L 0.359375 -28.796875 L 21.9375 -28.796875 L 21.9375 -25.828125 L 12.828125 -25.828125 Z M 12.828125 0 "/></g></g></g><g fill="#333333" fill-opacity="1"><g transform="translate(254.143143, 340.853453)"><g><path d="M 7.3125 -11.984375 L 7.3125 0 L 3.953125 0 L 3.953125 -28.796875 L 11.859375 -28.796875 C 15.390625 -28.796875 18 -28.117188 19.6875 -26.765625 C 21.375 -25.410156 22.21875 -23.378906 22.21875 -20.671875 C 22.21875 -16.859375 20.285156 -14.28125 16.421875 -12.9375 L 24.25 0 L 20.296875 0 L 13.3125 -11.984375 Z M 7.3125 -14.859375 L 11.890625 -14.859375 C 14.253906 -14.859375 15.988281 -15.328125 17.09375 -16.265625 C 18.195312 -17.203125 18.75 -18.609375 18.75 -20.484375 C 18.75 -22.390625 18.1875 -23.757812 17.0625 -24.59375 C 15.945312 -25.4375 14.144531 -25.859375 11.65625 -25.859375 L 7.3125 -25.859375 Z M 7.3125 -14.859375 "/></g></g></g><g fill="#333333" fill-opacity="1"><g transform="translate(282.023789, 340.853453)"><g><path d="M 3.953125 0 L 3.953125 -28.796875 L 7.3125 -28.796875 L 7.3125 0 Z M 3.953125 0 "/></g></g></g><g fill="#333333" fill-opacity="1"><g transform="translate(296.216001, 340.853453)"><g><path d="M 16.296875 -26.21875 C 13.128906 -26.21875 10.628906 -25.160156 8.796875 -23.046875 C 6.960938 -20.941406 6.046875 -18.0625 6.046875 -14.40625 C 6.046875 -10.632812 6.925781 -7.71875 8.6875 -5.65625 C 10.457031 -3.601562 12.976562 -2.578125 16.25 -2.578125 C 18.257812 -2.578125 20.550781 -2.9375 23.125 -3.65625 L 23.125 -0.734375 C 21.125 0.015625 18.660156 0.390625 15.734375 0.390625 C 11.492188 0.390625 8.222656 -0.894531 5.921875 -3.46875 C 3.617188 -6.039062 2.46875 -9.695312 2.46875 -14.4375 C 2.46875 -17.40625 3.019531 -20.003906 4.125 -22.234375 C 5.238281 -24.472656 6.84375 -26.195312 8.9375 -27.40625 C 11.03125 -28.613281 13.492188 -29.21875 16.328125 -29.21875 C 19.347656 -29.21875 21.988281 -28.664062 24.25 -27.5625 L 22.828125 -24.6875 C 20.648438 -25.707031 18.472656 -26.21875 16.296875 -26.21875 Z M 16.296875 -26.21875 "/></g></g></g><g fill="#333333" fill-opacity="1"><g transform="translate(46.12651, 369.770351)"><g><path d="M 2.09375 0 L 2.09375 -15.1875 L 3.859375 -15.1875 L 3.859375 -1.59375 L 10.5625 -1.59375 L 10.5625 0 Z M 2.09375 0 "/></g></g></g><g fill="#333333" fill-opacity="1"><g transform="translate(74.068297, 369.770351)"><g><path d="M 10.5625 0 L 2.09375 0 L 2.09375 -15.1875 L 10.5625 -15.1875 L 10.5625 -13.625 L 3.859375 -13.625 L 3.859375 -8.734375 L 10.15625 -8.734375 L 10.15625 -7.171875 L 3.859375 -7.171875 L 3.859375 -1.578125 L 10.5625 -1.578125 Z M 10.5625 0 "/></g></g></g><g fill="#333333" fill-opacity="1"><g transform="translate(102.799405, 369.770351)"><g><path d="M 11.640625 0 L 9.75 -4.828125 L 3.65625 -4.828125 L 1.78125 0 L 0 0 L 6 -15.25 L 7.484375 -15.25 L 13.46875 0 Z M 9.203125 -6.421875 L 7.4375 -11.125 C 7.207031 -11.71875 6.96875 -12.453125 6.71875 -13.328125 C 6.570312 -12.660156 6.351562 -11.925781 6.0625 -11.125 L 4.28125 -6.421875 Z M 9.203125 -6.421875 "/></g></g></g><g fill="#333333" fill-opacity="1"><g transform="translate(133.161089, 369.770351)"><g><path d="M 14.21875 -7.734375 C 14.21875 -5.234375 13.535156 -3.316406 12.171875 -1.984375 C 10.804688 -0.660156 8.847656 0 6.296875 0 L 2.09375 0 L 2.09375 -15.1875 L 6.75 -15.1875 C 9.101562 -15.1875 10.9375 -14.53125 12.25 -13.21875 C 13.5625 -11.914062 14.21875 -10.085938 14.21875 -7.734375 Z M 12.34375 -7.671875 C 12.34375 -9.660156 11.84375 -11.15625 10.84375 -12.15625 C 9.851562 -13.164062 8.378906 -13.671875 6.421875 -13.671875 L 3.859375 -13.671875 L 3.859375 -1.53125 L 6 -1.53125 C 8.113281 -1.53125 9.695312 -2.046875 10.75 -3.078125 C 11.8125 -4.117188 12.34375 -5.648438 12.34375 -7.671875 Z M 12.34375 -7.671875 "/></g></g></g><g fill="#333333" fill-opacity="1"><g transform="translate(165.568767, 369.770351)"><g><path d="M 10.5625 0 L 2.09375 0 L 2.09375 -15.1875 L 10.5625 -15.1875 L 10.5625 -13.625 L 3.859375 -13.625 L 3.859375 -8.734375 L 10.15625 -8.734375 L 10.15625 -7.171875 L 3.859375 -7.171875 L 3.859375 -1.578125 L 10.5625 -1.578125 Z M 10.5625 0 "/></g></g></g><g fill="#333333" fill-opacity="1"><g transform="translate(194.29987, 369.770351)"><g><path d="M 3.859375 -6.3125 L 3.859375 0 L 2.09375 0 L 2.09375 -15.1875 L 6.25 -15.1875 C 8.113281 -15.1875 9.488281 -14.828125 10.375 -14.109375 C 11.269531 -13.398438 11.71875 -12.332031 11.71875 -10.90625 C 11.71875 -8.894531 10.703125 -7.535156 8.671875 -6.828125 L 12.796875 0 L 10.703125 0 L 7.03125 -6.3125 Z M 3.859375 -7.828125 L 6.28125 -7.828125 C 7.519531 -7.828125 8.429688 -8.078125 9.015625 -8.578125 C 9.597656 -9.078125 9.890625 -9.820312 9.890625 -10.8125 C 9.890625 -11.8125 9.59375 -12.53125 9 -12.96875 C 8.40625 -13.414062 7.457031 -13.640625 6.15625 -13.640625 L 3.859375 -13.640625 Z M 3.859375 -7.828125 "/></g></g></g><g fill="#333333" fill-opacity="1"><g transform="translate(224.34997, 369.770351)"><g><path d="M 10.65625 -4.046875 C 10.65625 -2.703125 10.171875 -1.65625 9.203125 -0.90625 C 8.234375 -0.164062 6.921875 0.203125 5.265625 0.203125 C 3.460938 0.203125 2.070312 -0.0234375 1.09375 -0.484375 L 1.09375 -2.1875 C 1.71875 -1.925781 2.394531 -1.71875 3.125 -1.5625 C 3.863281 -1.414062 4.597656 -1.34375 5.328125 -1.34375 C 6.503906 -1.34375 7.390625 -1.566406 7.984375 -2.015625 C 8.578125 -2.460938 8.875 -3.082031 8.875 -3.875 C 8.875 -4.40625 8.765625 -4.835938 8.546875 -5.171875 C 8.335938 -5.503906 7.984375 -5.8125 7.484375 -6.09375 C 6.992188 -6.382812 6.242188 -6.707031 5.234375 -7.0625 C 3.828125 -7.570312 2.816406 -8.171875 2.203125 -8.859375 C 1.597656 -9.554688 1.296875 -10.460938 1.296875 -11.578125 C 1.296875 -12.742188 1.734375 -13.671875 2.609375 -14.359375 C 3.492188 -15.054688 4.660156 -15.40625 6.109375 -15.40625 C 7.617188 -15.40625 9.007812 -15.128906 10.28125 -14.578125 L 9.71875 -13.046875 C 8.46875 -13.566406 7.25 -13.828125 6.0625 -13.828125 C 5.132812 -13.828125 4.40625 -13.625 3.875 -13.21875 C 3.351562 -12.820312 3.09375 -12.269531 3.09375 -11.5625 C 3.09375 -11.03125 3.1875 -10.59375 3.375 -10.25 C 3.570312 -9.914062 3.898438 -9.609375 4.359375 -9.328125 C 4.816406 -9.054688 5.519531 -8.75 6.46875 -8.40625 C 8.0625 -7.832031 9.15625 -7.21875 9.75 -6.5625 C 10.351562 -5.914062 10.65625 -5.078125 10.65625 -4.046875 Z M 10.65625 -4.046875 "/></g></g></g><g fill="#333333" fill-opacity="1"><g transform="translate(252.925285, 369.770351)"><g><path d="M 13.625 0 L 11.859375 0 L 11.859375 -7.15625 L 3.859375 -7.15625 L 3.859375 0 L 2.09375 0 L 2.09375 -15.1875 L 3.859375 -15.1875 L 3.859375 -8.734375 L 11.859375 -8.734375 L 11.859375 -15.1875 L 13.625 -15.1875 Z M 13.625 0 "/></g></g></g><g fill="#333333" fill-opacity="1"><g transform="translate(285.519907, 369.770351)"><g><path d="M 2.09375 0 L 2.09375 -15.1875 L 3.859375 -15.1875 L 3.859375 0 Z M 2.09375 0 "/></g></g></g><g fill="#333333" fill-opacity="1"><g transform="translate(308.351873, 369.770351)"><g><path d="M 11.71875 -10.765625 C 11.71875 -9.222656 11.191406 -8.035156 10.140625 -7.203125 C 9.097656 -6.378906 7.597656 -5.96875 5.640625 -5.96875 L 3.859375 -5.96875 L 3.859375 0 L 2.09375 0 L 2.09375 -15.1875 L 6.03125 -15.1875 C 9.820312 -15.1875 11.71875 -13.710938 11.71875 -10.765625 Z M 3.859375 -7.484375 L 5.4375 -7.484375 C 7.007812 -7.484375 8.144531 -7.738281 8.84375 -8.25 C 9.539062 -8.757812 9.890625 -9.570312 9.890625 -10.6875 C 9.890625 -11.6875 9.5625 -12.429688 8.90625 -12.921875 C 8.25 -13.421875 7.222656 -13.671875 5.828125 -13.671875 L 3.859375 -13.671875 Z M 3.859375 -7.484375 "/></g></g></g><path fill="#0097b2" d="M 213.1875 155.070312 L 214.570312 154.082031 L 218.320312 150.921875 L 220.886719 148.550781 L 223.648438 145.980469 L 226.609375 142.820312 L 229.769531 139.460938 L 232.730469 135.507812 L 235.496094 131.554688 L 238.058594 127.207031 L 239.246094 124.835938 L 240.230469 122.664062 L 241.21875 120.292969 L 242.007812 117.722656 L 242.601562 115.351562 L 243.191406 112.78125 L 243.585938 110.214844 L 243.585938 105.074219 L 243.390625 102.507812 L 243.191406 101.714844 L 242.796875 101.125 L 242.402344 100.925781 L 241.613281 100.726562 L 239.046875 100.332031 L 236.480469 100.332031 L 233.914062 100.53125 L 231.546875 100.925781 L 228.980469 101.320312 L 226.609375 102.113281 L 224.242188 102.902344 L 221.875 103.890625 L 219.703125 104.878906 L 217.53125 106.0625 L 213.1875 108.828125 L 209.238281 111.597656 L 205.488281 114.757812 L 202.132812 117.722656 L 199.171875 120.882812 L 196.605469 123.652344 L 194.238281 126.21875 L 191.277344 130.171875 L 190.09375 131.554688 L 186.539062 131.160156 L 183.378906 130.960938 L 180.617188 130.960938 L 178.246094 131.160156 L 176.273438 131.554688 L 174.496094 132.148438 L 172.917969 133.136719 L 171.535156 134.320312 L 170.351562 135.902344 L 169.167969 137.679688 L 167.984375 139.855469 L 166.996094 142.226562 L 161.46875 156.058594 L 160.875 157.640625 L 160.875 158.824219 L 161.074219 159.8125 L 161.667969 160.40625 L 162.457031 161 L 163.441406 161.195312 L 164.628906 161 L 165.8125 160.800781 L 176.078125 156.847656 L 188.511719 169.496094 L 184.761719 180.167969 L 184.367188 181.351562 L 184.367188 182.539062 L 184.566406 183.527344 L 184.960938 184.316406 L 185.550781 184.910156 L 186.539062 185.109375 L 187.722656 185.109375 L 189.300781 184.710938 L 202.726562 178.980469 L 205.09375 177.796875 L 207.265625 176.609375 L 209.042969 175.425781 L 210.425781 174.238281 L 211.609375 172.855469 L 212.59375 171.277344 L 213.1875 169.496094 L 213.582031 167.324219 L 213.78125 164.953125 L 213.78125 162.183594 L 213.582031 158.824219 Z M 217.925781 126.613281 L 217.136719 125.429688 L 216.347656 124.046875 L 215.953125 122.664062 L 215.953125 119.894531 L 216.347656 118.511719 L 217.136719 117.128906 L 217.925781 115.945312 L 219.109375 114.957031 L 220.492188 114.363281 L 221.875 113.96875 L 223.257812 113.769531 L 224.636719 113.96875 L 226.019531 114.363281 L 227.203125 114.957031 L 228.386719 115.945312 L 229.375 117.128906 L 230.164062 118.511719 L 230.558594 119.894531 L 230.558594 122.664062 L 230.164062 124.046875 L 229.375 125.429688 L 228.386719 126.613281 L 227.203125 127.601562 L 226.019531 128.195312 L 224.636719 128.789062 L 221.875 128.789062 L 219.109375 127.601562 Z M 217.925781 126.613281 " fill-opacity="1" fill-rule="evenodd"/><path fill="#0097b2" d="M 181.367188 173.507812 L 175.261719 179.664062 L 161.632812 183.613281 L 165.46875 169.953125 L 171.578125 163.796875 Z M 181.367188 173.507812 " fill-opacity="1" fill-rule="evenodd"/><path fill="#0097b2" d="M 198.015625 1.4375 C 235.242188 1.835938 271.859375 16.199219 299.800781 43.226562 L 299.722656 43.308594 L 302.667969 47.675781 C 303.410156 49.425781 303.820312 51.347656 303.820312 53.367188 C 303.820312 61.441406 297.273438 67.988281 289.195312 67.988281 C 287.175781 67.988281 285.25 67.582031 283.5 66.839844 L 279.539062 64.167969 L 279.398438 64.3125 C 243.515625 29.605469 189.8125 20.917969 144.8125 42.53125 C 99.8125 64.148438 73.039062 111.5 77.714844 161.191406 C 82.394531 210.886719 117.53125 252.414062 165.777344 265.257812 C 214.019531 278.101562 265.160156 259.542969 293.9375 218.753906 L 293.949219 218.765625 L 295.710938 216.625 C 298.363281 213.96875 302.03125 212.328125 306.078125 212.328125 C 314.179688 212.328125 320.742188 218.898438 320.742188 227.003906 C 320.742188 227.511719 320.71875 228.011719 320.667969 228.507812 L 320.648438 228.613281 L 320.648438 228.632812 C 320.5 230.109375 320.132812 231.519531 319.574219 232.832031 L 319.34375 233.175781 L 318.238281 235.210938 L 317.882812 235.640625 L 317.917969 235.664062 L 316.558594 237.304688 L 316.441406 237.476562 L 316.382812 237.519531 L 303.226562 253.402344 C 266.1875 291.65625 210.824219 307.609375 158.226562 293.605469 C 98.113281 277.601562 54.328125 225.863281 48.5 163.941406 C 42.671875 102.023438 76.03125 43.023438 132.101562 16.089844 C 153.128906 5.988281 175.683594 1.199219 198.015625 1.4375 Z M 198.015625 1.4375 " fill-opacity="1" fill-rule="evenodd"/><path fill="#0097b2" d="M 119.707031 98.109375 C 127.792969 98.109375 134.34375 104.660156 134.34375 112.742188 C 134.34375 114.761719 133.9375 116.6875 133.195312 118.4375 L 132.378906 119.648438 L 132.585938 119.746094 C 116.773438 152.78125 129.308594 192.410156 161.242188 210.355469 C 191.183594 227.175781 228.550781 219.535156 249.597656 193.242188 L 253.511719 187.832031 L 253.582031 187.703125 L 254.429688 186.671875 L 254.542969 186.507812 L 254.617188 186.445312 L 255.363281 185.542969 C 258.003906 182.898438 261.648438 181.261719 265.675781 181.261719 C 273.730469 181.261719 280.261719 187.804688 280.261719 195.871094 C 280.261719 197.890625 279.851562 199.8125 279.113281 201.5625 L 277.980469 203.648438 L 278.015625 203.675781 L 277.792969 204.003906 L 277.769531 204.042969 L 277.734375 204.085938 L 275.269531 207.667969 C 246.03125 248.046875 190.859375 260.453125 146.945312 235.777344 C 104.449219 211.894531 86.152344 160.960938 102.527344 116.050781 L 106.128906 107.480469 L 106.21875 107.046875 C 108.441406 101.796875 113.644531 98.109375 119.707031 98.109375 Z M 119.707031 98.109375 " fill-opacity="1" fill-rule="evenodd"/></svg>