<svg xmlns="http://www.w3.org/2000/svg" xmlns:xlink="http://www.w3.org/1999/xlink" width="500" zoomAndPan="magnify" viewBox="0 0 375 374.999991" height="500" preserveAspectRatio="xMidYMid meet" version="1.0"><path fill="#0097b2" d="M 215.9375 193.542969 L 217.636719 192.328125 L 222.25 188.4375 L 225.40625 185.523438 L 228.804688 182.363281 L 232.445312 178.472656 L 236.332031 174.34375 L 239.972656 169.480469 L 243.371094 164.621094 L 246.527344 159.277344 L 247.984375 156.359375 L 249.195312 153.6875 L 250.410156 150.769531 L 251.382812 147.609375 L 252.109375 144.695312 L 252.839844 141.535156 L 253.324219 138.375 L 253.324219 132.058594 L 253.082031 128.898438 L 252.839844 127.925781 L 252.355469 127.195312 L 251.867188 126.953125 L 250.898438 126.710938 L 247.742188 126.222656 L 244.585938 126.222656 L 241.429688 126.46875 L 238.515625 126.953125 L 235.359375 127.4375 L 229.53125 129.382812 L 226.621094 130.597656 L 223.949219 131.8125 L 221.28125 133.273438 L 215.9375 136.675781 L 211.082031 140.078125 L 206.472656 143.964844 L 202.34375 147.609375 L 198.703125 151.5 L 195.546875 154.902344 L 192.632812 158.058594 L 188.992188 162.921875 L 187.535156 164.621094 L 183.164062 164.136719 L 179.28125 163.894531 L 175.882812 163.894531 L 172.96875 164.136719 L 170.539062 164.621094 L 168.355469 165.351562 L 166.414062 166.566406 L 164.714844 168.023438 L 163.257812 169.96875 L 161.800781 172.15625 L 160.34375 174.828125 L 159.132812 177.746094 L 152.332031 194.757812 L 151.605469 196.699219 L 151.605469 198.160156 L 151.847656 199.375 L 152.578125 200.105469 L 153.546875 200.832031 L 154.761719 201.074219 L 157.675781 200.589844 L 170.296875 195.730469 L 185.59375 211.28125 L 180.980469 224.40625 L 180.496094 225.863281 L 180.496094 227.324219 L 180.738281 228.535156 L 181.222656 229.507812 L 181.949219 230.238281 L 183.164062 230.480469 L 184.621094 230.480469 L 186.5625 229.996094 L 203.070312 222.945312 L 205.984375 221.488281 L 208.65625 220.03125 L 210.839844 218.574219 L 212.539062 217.117188 L 213.996094 215.414062 L 215.210938 213.46875 L 215.9375 211.28125 L 216.425781 208.609375 L 216.667969 205.695312 L 216.667969 202.289062 L 216.425781 198.160156 Z M 221.765625 158.546875 L 220.792969 157.089844 L 219.824219 155.386719 L 219.335938 153.6875 L 219.335938 150.285156 L 219.824219 148.582031 L 220.792969 146.882812 L 221.765625 145.421875 L 223.21875 144.207031 L 224.921875 143.480469 L 226.621094 142.992188 L 228.320312 142.75 L 230.019531 142.992188 L 231.71875 143.480469 L 233.171875 144.207031 L 234.632812 145.421875 L 235.84375 146.882812 L 236.816406 148.582031 L 237.300781 150.285156 L 237.300781 153.6875 L 236.816406 155.386719 L 235.84375 157.089844 L 234.632812 158.546875 L 233.171875 159.761719 L 231.71875 160.492188 L 230.019531 161.21875 L 226.621094 161.21875 L 224.921875 160.492188 L 223.21875 159.761719 Z M 221.765625 158.546875 " fill-opacity="1" fill-rule="evenodd"/><path fill="#0097b2" d="M 176.804688 216.21875 L 169.296875 223.789062 L 152.53125 228.640625 L 157.253906 211.84375 L 164.765625 204.269531 Z M 176.804688 216.21875 " fill-opacity="1" fill-rule="evenodd"/><path fill="#0097b2" d="M 197.28125 4.601562 C 243.058594 5.089844 288.09375 22.753906 322.457031 55.992188 L 322.359375 56.09375 L 325.984375 61.464844 C 326.894531 63.617188 327.398438 65.984375 327.398438 68.464844 C 327.398438 78.398438 319.347656 86.449219 309.414062 86.449219 C 306.929688 86.449219 304.5625 85.945312 302.410156 85.035156 L 297.535156 81.75 L 297.367188 81.925781 C 253.238281 39.246094 187.191406 28.558594 131.847656 55.140625 C 76.507812 81.726562 43.578125 139.957031 49.332031 201.070312 C 55.085938 262.1875 98.300781 313.253906 157.628906 329.050781 C 216.960938 344.84375 279.855469 322.023438 315.242188 271.863281 L 315.257812 271.871094 L 317.425781 269.242188 C 320.6875 265.976562 325.195312 263.953125 330.175781 263.953125 C 340.136719 263.953125 348.210938 272.039062 348.210938 282.007812 C 348.210938 282.632812 348.179688 283.246094 348.117188 283.855469 L 348.097656 283.988281 L 348.09375 284.007812 C 347.910156 285.824219 347.457031 287.558594 346.773438 289.171875 L 346.488281 289.59375 L 345.132812 292.101562 L 344.695312 292.628906 L 344.734375 292.65625 L 343.0625 294.675781 L 342.921875 294.886719 L 342.847656 294.9375 L 326.667969 314.472656 C 281.117188 361.515625 213.03125 381.132812 148.34375 363.914062 C 74.417969 344.234375 20.570312 280.601562 13.402344 204.453125 C 6.234375 128.300781 47.261719 55.746094 116.21875 22.621094 C 142.078125 10.199219 169.8125 4.308594 197.28125 4.601562 Z M 197.28125 4.601562 " fill-opacity="1" fill-rule="evenodd"/><path fill="#0097b2" d="M 100.972656 123.492188 C 110.917969 123.492188 118.976562 131.546875 118.976562 141.484375 C 118.976562 143.96875 118.472656 146.335938 117.5625 148.492188 L 116.558594 149.976562 L 116.8125 150.101562 C 97.367188 190.722656 112.78125 239.460938 152.054688 261.53125 C 188.875 282.21875 234.828125 272.820312 260.714844 240.488281 L 265.527344 233.832031 L 265.613281 233.675781 L 266.660156 232.40625 L 266.796875 232.207031 L 266.890625 232.128906 L 267.804688 231.015625 C 271.050781 227.761719 275.535156 225.753906 280.488281 225.753906 C 290.394531 225.753906 298.425781 233.796875 298.425781 243.71875 C 298.425781 246.203125 297.921875 248.566406 297.015625 250.714844 L 295.621094 253.285156 L 295.664062 253.3125 L 295.386719 253.71875 L 295.359375 253.765625 L 295.316406 253.820312 L 292.289062 258.226562 C 256.332031 307.886719 188.476562 323.144531 134.472656 292.796875 C 82.207031 263.425781 59.710938 200.789062 79.84375 145.554688 L 84.277344 135.015625 L 84.386719 134.480469 C 87.117188 128.023438 93.515625 123.492188 100.972656 123.492188 Z M 100.972656 123.492188 " fill-opacity="1" fill-rule="evenodd"/></svg>