<svg xmlns="http://www.w3.org/2000/svg" xmlns:xlink="http://www.w3.org/1999/xlink" width="5669" zoomAndPan="magnify" viewBox="0 0 4251.75 1417.499936" height="1889" preserveAspectRatio="xMidYMid meet" version="1.0"><defs><g/></defs><g fill="#ffffff" fill-opacity="1"><g transform="translate(989.725691, 710.371066)"><g><path d="M 201.828125 -324.828125 C 162.617188 -324.828125 131.664062 -311.769531 108.96875 -285.65625 C 86.269531 -259.539062 74.921875 -223.789062 74.921875 -178.40625 C 74.921875 -131.707031 85.863281 -95.625 107.75 -70.15625 C 129.632812 -44.695312 160.832031 -31.96875 201.34375 -31.96875 C 226.238281 -31.96875 254.628906 -36.441406 286.515625 -45.390625 L 286.515625 -9.03125 C 261.785156 0.238281 231.28125 4.875 195 4.875 C 142.445312 4.875 101.890625 -11.066406 73.328125 -42.953125 C 44.773438 -74.835938 30.5 -120.148438 30.5 -178.890625 C 30.5 -215.660156 37.375 -247.875 51.125 -275.53125 C 64.875 -303.1875 84.722656 -324.5 110.671875 -339.46875 C 136.628906 -354.4375 167.175781 -361.921875 202.3125 -361.921875 C 239.738281 -361.921875 272.441406 -355.085938 300.421875 -341.421875 L 282.859375 -305.796875 C 255.847656 -318.484375 228.835938 -324.828125 201.828125 -324.828125 Z M 201.828125 -324.828125 "/></g></g><g transform="translate(1305.040963, 710.371066)"><g><path d="M 358.75 -178.890625 C 358.75 -121.785156 344.304688 -76.878906 315.421875 -44.171875 C 286.546875 -11.472656 246.40625 4.875 195 4.875 C 142.445312 4.875 101.890625 -11.1875 73.328125 -43.3125 C 44.773438 -75.445312 30.5 -120.800781 30.5 -179.375 C 30.5 -237.457031 44.816406 -282.484375 73.453125 -314.453125 C 102.085938 -346.421875 142.765625 -362.40625 195.484375 -362.40625 C 246.734375 -362.40625 286.753906 -346.132812 315.546875 -313.59375 C 344.347656 -281.0625 358.75 -236.160156 358.75 -178.890625 Z M 74.4375 -178.890625 C 74.4375 -130.566406 84.722656 -93.914062 105.296875 -68.9375 C 125.878906 -43.96875 155.78125 -31.484375 195 -31.484375 C 234.53125 -31.484375 264.382812 -43.925781 284.5625 -68.8125 C 304.738281 -93.707031 314.828125 -130.398438 314.828125 -178.890625 C 314.828125 -226.878906 304.78125 -263.28125 284.6875 -288.09375 C 264.59375 -312.90625 234.859375 -325.3125 195.484375 -325.3125 C 155.941406 -325.3125 125.878906 -312.820312 105.296875 -287.84375 C 84.722656 -262.875 74.4375 -226.554688 74.4375 -178.890625 Z M 74.4375 -178.890625 "/></g></g><g transform="translate(1694.304006, 710.371066)"><g><path d="M 327.765625 0 L 280.40625 0 L 85.421875 -299.453125 L 83.46875 -299.453125 C 86.070312 -264.304688 87.375 -232.09375 87.375 -202.8125 L 87.375 0 L 49.046875 0 L 49.046875 -356.796875 L 95.90625 -356.796875 L 290.421875 -58.578125 L 292.375 -58.578125 C 292.039062 -62.960938 291.304688 -77.070312 290.171875 -100.90625 C 289.035156 -124.75 288.628906 -141.796875 288.953125 -152.046875 L 288.953125 -356.796875 L 327.765625 -356.796875 Z M 327.765625 0 "/></g></g><g transform="translate(2071.120396, 710.371066)"><g><path d="M 201.828125 -324.828125 C 162.617188 -324.828125 131.664062 -311.769531 108.96875 -285.65625 C 86.269531 -259.539062 74.921875 -223.789062 74.921875 -178.40625 C 74.921875 -131.707031 85.863281 -95.625 107.75 -70.15625 C 129.632812 -44.695312 160.832031 -31.96875 201.34375 -31.96875 C 226.238281 -31.96875 254.628906 -36.441406 286.515625 -45.390625 L 286.515625 -9.03125 C 261.785156 0.238281 231.28125 4.875 195 4.875 C 142.445312 4.875 101.890625 -11.066406 73.328125 -42.953125 C 44.773438 -74.835938 30.5 -120.148438 30.5 -178.890625 C 30.5 -215.660156 37.375 -247.875 51.125 -275.53125 C 64.875 -303.1875 84.722656 -324.5 110.671875 -339.46875 C 136.628906 -354.4375 167.175781 -361.921875 202.3125 -361.921875 C 239.738281 -361.921875 272.441406 -355.085938 300.421875 -341.421875 L 282.859375 -305.796875 C 255.847656 -318.484375 228.835938 -324.828125 201.828125 -324.828125 Z M 201.828125 -324.828125 "/></g></g><g transform="translate(2386.435668, 710.371066)"><g><path d="M 247.953125 0 L 49.046875 0 L 49.046875 -356.796875 L 247.953125 -356.796875 L 247.953125 -319.953125 L 90.546875 -319.953125 L 90.546875 -205 L 238.4375 -205 L 238.4375 -168.390625 L 90.546875 -168.390625 L 90.546875 -37.09375 L 247.953125 -37.09375 Z M 247.953125 0 "/></g></g><g transform="translate(2664.410969, 710.371066)"><g><path d="M 327.765625 0 L 280.40625 0 L 85.421875 -299.453125 L 83.46875 -299.453125 C 86.070312 -264.304688 87.375 -232.09375 87.375 -202.8125 L 87.375 0 L 49.046875 0 L 49.046875 -356.796875 L 95.90625 -356.796875 L 290.421875 -58.578125 L 292.375 -58.578125 C 292.039062 -62.960938 291.304688 -77.070312 290.171875 -100.90625 C 289.035156 -124.75 288.628906 -141.796875 288.953125 -152.046875 L 288.953125 -356.796875 L 327.765625 -356.796875 Z M 327.765625 0 "/></g></g><g transform="translate(3041.227359, 710.371066)"><g><path d="M 158.875 0 L 117.390625 0 L 117.390625 -319.953125 L 4.390625 -319.953125 L 4.390625 -356.796875 L 271.875 -356.796875 L 271.875 -319.953125 L 158.875 -319.953125 Z M 158.875 0 "/></g></g><g transform="translate(3317.738352, 710.371066)"><g><path d="M 90.546875 -148.375 L 90.546875 0 L 49.046875 0 L 49.046875 -356.796875 L 146.921875 -356.796875 C 190.679688 -356.796875 223.015625 -348.414062 243.921875 -331.65625 C 264.828125 -314.90625 275.28125 -289.6875 275.28125 -256 C 275.28125 -208.820312 251.363281 -176.9375 203.53125 -160.34375 L 300.421875 0 L 251.375 0 L 164.984375 -148.375 Z M 90.546875 -184.015625 L 147.40625 -184.015625 C 176.6875 -184.015625 198.160156 -189.828125 211.828125 -201.453125 C 225.492188 -213.085938 232.328125 -230.539062 232.328125 -253.8125 C 232.328125 -277.40625 225.375 -294.40625 211.46875 -304.8125 C 197.5625 -315.226562 175.234375 -320.4375 144.484375 -320.4375 L 90.546875 -320.4375 Z M 90.546875 -184.015625 "/></g></g><g transform="translate(3626.708266, 710.371066)"><g><path d="M 49.046875 0 L 49.046875 -356.796875 L 90.546875 -356.796875 L 90.546875 0 Z M 49.046875 0 "/></g></g><g transform="translate(3766.061994, 710.371066)"><g><path d="M 201.828125 -324.828125 C 162.617188 -324.828125 131.664062 -311.769531 108.96875 -285.65625 C 86.269531 -259.539062 74.921875 -223.789062 74.921875 -178.40625 C 74.921875 -131.707031 85.863281 -95.625 107.75 -70.15625 C 129.632812 -44.695312 160.832031 -31.96875 201.34375 -31.96875 C 226.238281 -31.96875 254.628906 -36.441406 286.515625 -45.390625 L 286.515625 -9.03125 C 261.785156 0.238281 231.28125 4.875 195 4.875 C 142.445312 4.875 101.890625 -11.066406 73.328125 -42.953125 C 44.773438 -74.835938 30.5 -120.148438 30.5 -178.890625 C 30.5 -215.660156 37.375 -247.875 51.125 -275.53125 C 64.875 -303.1875 84.722656 -324.5 110.671875 -339.46875 C 136.628906 -354.4375 167.175781 -361.921875 202.3125 -361.921875 C 239.738281 -361.921875 272.441406 -355.085938 300.421875 -341.421875 L 282.859375 -305.796875 C 255.847656 -318.484375 228.835938 -324.828125 201.828125 -324.828125 Z M 201.828125 -324.828125 "/></g></g></g><g fill="#ffffff" fill-opacity="1"><g transform="translate(1009.588699, 1106.591906)"><g><path d="M 28.46875 0 L 28.46875 -226.1875 L 76.421875 -226.1875 L 76.421875 -39.609375 L 168.171875 -39.609375 L 168.171875 0 Z M 28.46875 0 "/></g></g></g><g fill="#ffffff" fill-opacity="1"><g transform="translate(1315.319023, 1106.591906)"><g><path d="M 158.734375 0 L 28.46875 0 L 28.46875 -226.1875 L 158.734375 -226.1875 L 158.734375 -186.890625 L 76.421875 -186.890625 L 76.421875 -137.234375 L 153 -137.234375 L 153 -97.9375 L 76.421875 -97.9375 L 76.421875 -39.609375 L 158.734375 -39.609375 Z M 158.734375 0 "/></g></g></g><g fill="#ffffff" fill-opacity="1"><g transform="translate(1619.502305, 1106.591906)"><g><path d="M 166.9375 0 L 150.53125 -53.84375 L 68.078125 -53.84375 L 51.671875 0 L 0 0 L 79.828125 -227.109375 L 138.46875 -227.109375 L 218.609375 0 Z M 139.078125 -94.0625 C 123.921875 -142.84375 115.382812 -170.429688 113.46875 -176.828125 C 111.5625 -183.222656 110.195312 -188.28125 109.375 -192 C 105.976562 -178.789062 96.234375 -146.144531 80.140625 -94.0625 Z M 139.078125 -94.0625 "/></g></g></g><g fill="#ffffff" fill-opacity="1"><g transform="translate(1964.837333, 1106.591906)"><g><path d="M 216.125 -115.265625 C 216.125 -78.023438 205.523438 -49.503906 184.328125 -29.703125 C 163.140625 -9.898438 132.535156 0 92.515625 0 L 28.46875 0 L 28.46875 -226.1875 L 99.484375 -226.1875 C 136.398438 -226.1875 165.066406 -216.4375 185.484375 -196.9375 C 205.910156 -177.445312 216.125 -150.222656 216.125 -115.265625 Z M 166.3125 -114.015625 C 166.3125 -162.597656 144.859375 -186.890625 101.953125 -186.890625 L 76.421875 -186.890625 L 76.421875 -39.609375 L 97 -39.609375 C 143.207031 -39.609375 166.3125 -64.410156 166.3125 -114.015625 Z M 166.3125 -114.015625 "/></g></g></g><g fill="#ffffff" fill-opacity="1"><g transform="translate(2326.107083, 1106.591906)"><g><path d="M 158.734375 0 L 28.46875 0 L 28.46875 -226.1875 L 158.734375 -226.1875 L 158.734375 -186.890625 L 76.421875 -186.890625 L 76.421875 -137.234375 L 153 -137.234375 L 153 -97.9375 L 76.421875 -97.9375 L 76.421875 -39.609375 L 158.734375 -39.609375 Z M 158.734375 0 "/></g></g></g><g fill="#ffffff" fill-opacity="1"><g transform="translate(2630.290411, 1106.591906)"><g><path d="M 76.421875 -125.78125 L 91.890625 -125.78125 C 107.054688 -125.78125 118.25 -128.304688 125.46875 -133.359375 C 132.6875 -138.410156 136.296875 -146.351562 136.296875 -157.1875 C 136.296875 -167.914062 132.609375 -175.546875 125.234375 -180.078125 C 117.859375 -184.617188 106.4375 -186.890625 90.96875 -186.890625 L 76.421875 -186.890625 Z M 76.421875 -86.796875 L 76.421875 0 L 28.46875 0 L 28.46875 -226.1875 L 94.375 -226.1875 C 125.101562 -226.1875 147.84375 -220.585938 162.59375 -209.390625 C 177.34375 -198.203125 184.71875 -181.210938 184.71875 -158.421875 C 184.71875 -145.117188 181.054688 -133.285156 173.734375 -122.921875 C 166.410156 -112.554688 156.046875 -104.429688 142.640625 -98.546875 C 176.679688 -47.703125 198.859375 -14.851562 209.171875 0 L 155.953125 0 L 101.953125 -86.796875 Z M 76.421875 -86.796875 "/></g></g></g><g fill="#ffffff" fill-opacity="1"><g transform="translate(2966.188424, 1106.591906)"><g><path d="M 161.984375 -62.8125 C 161.984375 -42.382812 154.632812 -26.289062 139.9375 -14.53125 C 125.238281 -2.78125 104.789062 3.09375 78.59375 3.09375 C 54.457031 3.09375 33.109375 -1.441406 14.546875 -10.515625 L 14.546875 -55.078125 C 29.804688 -48.265625 42.722656 -43.46875 53.296875 -40.6875 C 63.867188 -37.90625 73.539062 -36.515625 82.3125 -36.515625 C 92.820312 -36.515625 100.890625 -38.523438 106.515625 -42.546875 C 112.140625 -46.566406 114.953125 -52.546875 114.953125 -60.484375 C 114.953125 -64.921875 113.710938 -68.867188 111.234375 -72.328125 C 108.753906 -75.785156 105.117188 -79.109375 100.328125 -82.296875 C 95.535156 -85.492188 85.765625 -90.601562 71.015625 -97.625 C 57.191406 -104.125 46.820312 -110.363281 39.90625 -116.34375 C 33 -122.320312 27.484375 -129.28125 23.359375 -137.21875 C 19.234375 -145.164062 17.171875 -154.453125 17.171875 -165.078125 C 17.171875 -185.085938 23.953125 -200.816406 37.515625 -212.265625 C 51.078125 -223.710938 69.820312 -229.4375 93.75 -229.4375 C 105.507812 -229.4375 116.726562 -228.039062 127.40625 -225.25 C 138.082031 -222.46875 149.242188 -218.550781 160.890625 -213.5 L 145.421875 -176.21875 C 133.359375 -181.164062 123.378906 -184.617188 115.484375 -186.578125 C 107.597656 -188.535156 99.835938 -189.515625 92.203125 -189.515625 C 83.128906 -189.515625 76.164062 -187.398438 71.3125 -183.171875 C 66.46875 -178.941406 64.046875 -173.425781 64.046875 -166.625 C 64.046875 -162.394531 65.023438 -158.707031 66.984375 -155.5625 C 68.941406 -152.414062 72.0625 -149.367188 76.34375 -146.421875 C 80.625 -143.484375 90.757812 -138.203125 106.75 -130.578125 C 127.894531 -120.460938 142.382812 -110.328125 150.21875 -100.171875 C 158.0625 -90.015625 161.984375 -77.5625 161.984375 -62.8125 Z M 161.984375 -62.8125 "/></g></g></g><g fill="#ffffff" fill-opacity="1"><g transform="translate(3267.432257, 1106.591906)"><g><path d="M 213.8125 0 L 166 0 L 166 -97.625 L 76.421875 -97.625 L 76.421875 0 L 28.46875 0 L 28.46875 -226.1875 L 76.421875 -226.1875 L 76.421875 -137.53125 L 166 -137.53125 L 166 -226.1875 L 213.8125 -226.1875 Z M 213.8125 0 "/></g></g></g><g fill="#ffffff" fill-opacity="1"><g transform="translate(3636.592079, 1106.591906)"><g><path d="M 28.46875 0 L 28.46875 -226.1875 L 76.421875 -226.1875 L 76.421875 0 Z M 28.46875 0 "/></g></g></g><g fill="#ffffff" fill-opacity="1"><g transform="translate(3868.218204, 1106.591906)"><g><path d="M 76.421875 -119.75 L 92.203125 -119.75 C 106.953125 -119.75 117.988281 -122.660156 125.3125 -128.484375 C 132.632812 -134.316406 136.296875 -142.800781 136.296875 -153.9375 C 136.296875 -165.175781 133.226562 -173.476562 127.09375 -178.84375 C 120.957031 -184.207031 111.335938 -186.890625 98.234375 -186.890625 L 76.421875 -186.890625 Z M 184.71875 -155.640625 C 184.71875 -131.296875 177.109375 -112.675781 161.890625 -99.78125 C 146.679688 -86.894531 125.050781 -80.453125 97 -80.453125 L 76.421875 -80.453125 L 76.421875 0 L 28.46875 0 L 28.46875 -226.1875 L 100.71875 -226.1875 C 128.15625 -226.1875 149.015625 -220.28125 163.296875 -208.46875 C 177.578125 -196.65625 184.71875 -179.046875 184.71875 -155.640625 Z M 184.71875 -155.640625 "/></g></g></g><path fill="#ffffff" d="M 486.269531 740.8125 L 489.792969 738.292969 L 499.355469 730.230469 L 505.898438 724.183594 L 512.945312 717.636719 L 520.492188 709.574219 L 528.546875 701.011719 L 536.09375 690.933594 L 543.140625 680.859375 L 549.683594 669.773438 L 552.703125 663.730469 L 555.21875 658.1875 L 557.738281 652.140625 L 559.75 645.589844 L 561.257812 639.546875 L 562.769531 632.996094 L 563.777344 626.445312 L 563.777344 613.347656 L 563.273438 606.796875 L 562.769531 604.78125 L 561.765625 603.273438 L 560.757812 602.769531 L 558.746094 602.265625 L 552.199219 601.257812 L 545.660156 601.257812 L 539.113281 601.761719 L 533.074219 602.769531 L 526.535156 603.777344 L 520.492188 605.789062 L 514.453125 607.804688 L 508.414062 610.324219 L 502.878906 612.84375 L 497.34375 615.867188 L 486.269531 622.921875 L 476.207031 629.972656 L 466.644531 638.035156 L 458.089844 645.589844 L 450.539062 653.652344 L 443.996094 660.707031 L 437.957031 667.253906 L 430.40625 677.332031 L 427.390625 680.859375 L 418.328125 679.851562 L 410.277344 679.347656 L 403.230469 679.347656 L 397.191406 679.851562 L 392.160156 680.859375 L 387.628906 682.371094 L 383.605469 684.886719 L 380.082031 687.910156 L 377.0625 691.941406 L 374.042969 696.476562 L 371.023438 702.019531 L 368.507812 708.0625 L 354.414062 743.328125 L 352.902344 747.359375 L 352.902344 750.382812 L 353.40625 752.902344 L 354.917969 754.414062 L 356.929688 755.925781 L 359.445312 756.425781 L 362.464844 755.925781 L 365.484375 755.421875 L 391.65625 745.34375 L 423.363281 777.585938 L 413.800781 804.792969 L 412.792969 807.816406 L 412.792969 810.839844 L 413.296875 813.359375 L 414.304688 815.375 L 415.8125 816.886719 L 418.328125 817.390625 L 421.347656 817.390625 L 425.375 816.382812 L 459.597656 801.769531 L 465.636719 798.746094 L 471.175781 795.726562 L 475.703125 792.703125 L 479.222656 789.679688 L 482.242188 786.15625 L 484.761719 782.125 L 486.269531 777.585938 L 487.277344 772.046875 L 487.78125 766.003906 L 487.78125 758.949219 L 487.277344 750.382812 Z M 498.347656 668.261719 L 496.335938 665.238281 L 494.324219 661.714844 L 493.316406 658.1875 L 493.316406 651.132812 L 494.324219 647.605469 L 496.335938 644.078125 L 498.347656 641.058594 L 501.367188 638.539062 L 504.894531 637.027344 L 508.414062 636.019531 L 511.941406 635.515625 L 515.460938 636.019531 L 518.984375 637.027344 L 522 638.539062 L 525.023438 641.058594 L 527.539062 644.078125 L 529.554688 647.605469 L 530.558594 651.132812 L 530.558594 658.1875 L 529.554688 661.714844 L 527.539062 665.238281 L 525.023438 668.261719 L 522 670.78125 L 518.984375 672.292969 L 515.460938 673.804688 L 508.414062 673.804688 L 504.894531 672.292969 L 501.367188 670.78125 Z M 498.347656 668.261719 " fill-opacity="1" fill-rule="evenodd"/><path fill="#ffffff" d="M 405.148438 787.820312 L 389.578125 803.515625 L 354.828125 813.578125 L 364.613281 778.75 L 380.183594 763.050781 Z M 405.148438 787.820312 " fill-opacity="1" fill-rule="evenodd"/><path fill="#ffffff" d="M 447.589844 349.125 C 542.492188 350.136719 635.851562 386.757812 707.09375 455.664062 L 706.890625 455.871094 L 714.40625 467.007812 C 716.289062 471.46875 717.335938 476.371094 717.335938 481.519531 C 717.335938 502.105469 700.644531 518.796875 680.050781 518.796875 C 674.902344 518.796875 669.996094 517.753906 665.535156 515.867188 L 655.429688 509.054688 L 655.078125 509.421875 C 563.59375 420.941406 426.675781 398.785156 311.945312 453.894531 C 197.21875 509.007812 128.960938 629.722656 140.886719 756.417969 C 152.8125 883.117188 242.398438 988.984375 365.394531 1021.726562 C 488.390625 1054.472656 618.777344 1007.164062 692.140625 903.175781 L 692.167969 903.195312 L 696.664062 897.742188 C 703.429688 890.972656 712.773438 886.78125 723.097656 886.78125 C 743.746094 886.78125 760.480469 903.539062 760.480469 924.207031 C 760.480469 925.5 760.414062 926.773438 760.285156 928.035156 L 760.246094 928.308594 L 760.242188 928.359375 C 759.859375 932.117188 758.921875 935.710938 757.503906 939.058594 L 756.914062 939.933594 L 754.097656 945.128906 L 753.191406 946.226562 L 753.277344 946.285156 L 749.8125 950.46875 L 749.515625 950.90625 L 749.363281 951.011719 L 715.820312 991.511719 C 621.390625 1089.035156 480.246094 1129.703125 346.144531 1094.003906 C 192.886719 1053.203125 81.261719 921.296875 66.402344 763.429688 C 51.542969 605.5625 136.59375 455.148438 279.546875 386.476562 C 333.15625 360.726562 390.652344 348.515625 447.589844 349.125 Z M 447.589844 349.125 " fill-opacity="1" fill-rule="evenodd"/><path fill="#ffffff" d="M 247.941406 595.589844 C 268.554688 595.589844 285.261719 612.292969 285.261719 632.894531 C 285.261719 638.046875 284.21875 642.953125 282.332031 647.414062 L 280.25 650.5 L 280.777344 650.753906 C 240.464844 734.96875 272.421875 836.003906 353.839844 881.753906 C 430.167969 924.644531 525.433594 905.160156 579.09375 838.132812 L 589.074219 824.339844 L 589.253906 824.011719 L 591.417969 821.378906 L 591.703125 820.964844 L 591.898438 820.800781 L 593.796875 818.496094 C 600.527344 811.753906 609.820312 807.585938 620.085938 807.585938 C 640.625 807.585938 657.269531 824.261719 657.269531 844.835938 C 657.269531 849.980469 656.230469 854.878906 654.347656 859.335938 L 651.464844 864.664062 L 651.550781 864.722656 L 650.976562 865.5625 L 650.921875 865.664062 L 650.832031 865.773438 L 644.550781 874.90625 C 570.007812 977.855469 429.34375 1009.484375 317.386719 946.570312 C 209.039062 885.6875 162.398438 755.832031 204.140625 641.332031 L 213.328125 619.484375 L 213.554688 618.375 C 219.21875 604.984375 232.484375 595.589844 247.941406 595.589844 Z M 247.941406 595.589844 " fill-opacity="1" fill-rule="evenodd"/></svg>