<svg xmlns="http://www.w3.org/2000/svg" xmlns:xlink="http://www.w3.org/1999/xlink" width="1024" zoomAndPan="magnify" viewBox="0 0 768 767.999994" height="1024" preserveAspectRatio="xMidYMid meet" version="1.0"><defs><clipPath id="628025aa6d"><path d="M 0 3.019531 L 764.976562 3.019531 L 764.976562 767.996094 L 0 767.996094 Z M 0 3.019531 " clip-rule="nonzero"/></clipPath><clipPath id="e4a436803b"><path d="M 382.488281 3.019531 C 171.246094 3.019531 0 174.265625 0 385.507812 C 0 596.75 171.246094 767.996094 382.488281 767.996094 C 593.730469 767.996094 764.976562 596.75 764.976562 385.507812 C 764.976562 174.265625 593.730469 3.019531 382.488281 3.019531 Z M 382.488281 3.019531 " clip-rule="nonzero"/></clipPath><clipPath id="31e5f7fc0e"><path d="M 134.011719 137.03125 L 630.957031 137.03125 L 630.957031 633.976562 L 134.011719 633.976562 Z M 134.011719 137.03125 " clip-rule="nonzero"/></clipPath><clipPath id="793fd91970"><path d="M 382.484375 137.03125 C 245.257812 137.03125 134.011719 248.277344 134.011719 385.503906 C 134.011719 522.730469 245.257812 633.976562 382.484375 633.976562 C 519.710938 633.976562 630.957031 522.730469 630.957031 385.503906 C 630.957031 248.277344 519.710938 137.03125 382.484375 137.03125 Z M 382.484375 137.03125 " clip-rule="nonzero"/></clipPath><clipPath id="c3dc355c2e"><path d="M 264.125 267.144531 L 500.84375 267.144531 L 500.84375 503.863281 L 264.125 503.863281 Z M 264.125 267.144531 " clip-rule="nonzero"/></clipPath><clipPath id="86d341b7d3"><path d="M 382.484375 267.144531 C 317.117188 267.144531 264.125 320.136719 264.125 385.503906 C 264.125 450.871094 317.117188 503.863281 382.484375 503.863281 C 447.855469 503.863281 500.84375 450.871094 500.84375 385.503906 C 500.84375 320.136719 447.855469 267.144531 382.484375 267.144531 Z M 382.484375 267.144531 " clip-rule="nonzero"/></clipPath></defs><g clip-path="url(#628025aa6d)"><g clip-path="url(#e4a436803b)"><path stroke-linecap="butt" transform="matrix(0.75, 0, 0, 0.75, 0.000003, 3.018692)" fill="none" stroke-linejoin="miter" d="M 509.984364 0.00111894 C 228.328118 0.00111894 -0.000004 228.329241 -0.000004 509.985487 C -0.000004 791.641732 228.328118 1019.969854 509.984364 1019.969854 C 791.64061 1019.969854 1019.968731 791.641732 1019.968731 509.985487 C 1019.968731 228.329241 791.64061 0.00111894 509.984364 0.00111894 Z M 509.984364 0.00111894 " stroke="#000000" stroke-width="72" stroke-opacity="1" stroke-miterlimit="4"/></g></g><g clip-path="url(#31e5f7fc0e)"><g clip-path="url(#793fd91970)"><path stroke-linecap="butt" transform="matrix(0.75, 0, 0, 0.75, 134.012516, 137.031196)" fill="none" stroke-linejoin="miter" d="M 331.295828 0.0000725069 C 148.327069 0.0000725069 -0.00106349 148.328205 -0.00106349 331.296964 C -0.00106349 514.265723 148.327069 662.593855 331.295828 662.593855 C 514.264587 662.593855 662.592719 514.265723 662.592719 331.296964 C 662.592719 148.328205 514.264587 0.0000725069 331.295828 0.0000725069 Z M 331.295828 0.0000725069 " stroke="#000000" stroke-width="72" stroke-opacity="1" stroke-miterlimit="4"/></g></g><g clip-path="url(#c3dc355c2e)"><g clip-path="url(#86d341b7d3)"><path stroke-linecap="butt" transform="matrix(0.75, 0, 0, 0.75, 264.126465, 267.145144)" fill="none" stroke-linejoin="miter" d="M 157.810554 -0.000817509 C 70.6543 -0.000817509 -0.00195351 70.655436 -0.00195351 157.81169 C -0.00195351 244.967945 70.6543 315.624198 157.810554 315.624198 C 244.972017 315.624198 315.623062 244.967945 315.623062 157.81169 C 315.623062 70.655436 244.972017 -0.000817509 157.810554 -0.000817509 Z M 157.810554 -0.000817509 " stroke="#000000" stroke-width="72" stroke-opacity="1" stroke-miterlimit="4"/></g></g></svg>