<svg xmlns="http://www.w3.org/2000/svg" xmlns:xlink="http://www.w3.org/1999/xlink" width="500" zoomAndPan="magnify" viewBox="0 0 375 374.999991" height="500" preserveAspectRatio="xMidYMid meet" version="1.0"><defs><clipPath id="d14b5f5861"><path d="M 2.601562 2.601562 L 372.398438 2.601562 L 372.398438 372.398438 L 2.601562 372.398438 Z M 2.601562 2.601562 " clip-rule="nonzero"/></clipPath><clipPath id="47c5a0b6ea"><path d="M 187.5 2.601562 C 85.382812 2.601562 2.601562 85.382812 2.601562 187.5 C 2.601562 289.617188 85.382812 372.398438 187.5 372.398438 C 289.617188 372.398438 372.398438 289.617188 372.398438 187.5 C 372.398438 85.382812 289.617188 2.601562 187.5 2.601562 Z M 187.5 2.601562 " clip-rule="nonzero"/></clipPath><clipPath id="5b087cc778"><path d="M 71.730469 71.730469 L 303.269531 71.730469 L 303.269531 303.269531 L 71.730469 303.269531 Z M 71.730469 71.730469 " clip-rule="nonzero"/></clipPath><clipPath id="0ed82db54a"><path d="M 187.5 71.730469 C 123.5625 71.730469 71.730469 123.5625 71.730469 187.5 C 71.730469 251.4375 123.5625 303.269531 187.5 303.269531 C 251.4375 303.269531 303.269531 251.4375 303.269531 187.5 C 303.269531 123.5625 251.4375 71.730469 187.5 71.730469 Z M 187.5 71.730469 " clip-rule="nonzero"/></clipPath><clipPath id="0a41152ec3"><path d="M 132.109375 132.109375 L 242.890625 132.109375 L 242.890625 242.890625 L 132.109375 242.890625 Z M 132.109375 132.109375 " clip-rule="nonzero"/></clipPath><clipPath id="9209d1945a"><path d="M 187.5 132.109375 C 156.910156 132.109375 132.109375 156.910156 132.109375 187.5 C 132.109375 218.089844 156.910156 242.890625 187.5 242.890625 C 218.089844 242.890625 242.890625 218.089844 242.890625 187.5 C 242.890625 156.910156 218.089844 132.109375 187.5 132.109375 Z M 187.5 132.109375 " clip-rule="nonzero"/></clipPath></defs><g clip-path="url(#d14b5f5861)"><g clip-path="url(#47c5a0b6ea)"><path fill="#75caee" d="M 2.601562 2.601562 L 372.398438 2.601562 L 372.398438 372.398438 L 2.601562 372.398438 Z M 2.601562 2.601562 " fill-opacity="1" fill-rule="nonzero"/></g></g><g clip-path="url(#5b087cc778)"><g clip-path="url(#0ed82db54a)"><path fill="#0097b2" d="M 71.730469 71.730469 L 303.269531 71.730469 L 303.269531 303.269531 L 71.730469 303.269531 Z M 71.730469 71.730469 " fill-opacity="1" fill-rule="nonzero"/></g></g><g clip-path="url(#0a41152ec3)"><g clip-path="url(#9209d1945a)"><path fill="#0070ad" d="M 132.109375 132.109375 L 242.890625 132.109375 L 242.890625 242.890625 L 132.109375 242.890625 Z M 132.109375 132.109375 " fill-opacity="1" fill-rule="nonzero"/></g></g></svg>